<?xml version="1.0" encoding="UTF-8" standalone="no"?>
<!-- Created with Inkscape (http://www.inkscape.org/) -->

<svg
   width="26mm"
   height="26mm"
   viewBox="0 0 26 26"
   version="1.1"
   id="svg1"
   inkscape:version="1.3.2 (091e20e, 2023-11-25, custom)"
   sodipodi:docname="a.svg"
   xmlns:inkscape="http://www.inkscape.org/namespaces/inkscape"
   xmlns:sodipodi="http://sodipodi.sourceforge.net/DTD/sodipodi-0.dtd"
   xmlns="http://www.w3.org/2000/svg"
   xmlns:svg="http://www.w3.org/2000/svg">
  <sodipodi:namedview
     id="namedview1"
     pagecolor="#ffffff"
     bordercolor="#000000"
     borderopacity="0.25"
     inkscape:showpageshadow="2"
     inkscape:pageopacity="0.0"
     inkscape:pagecheckerboard="0"
     inkscape:deskcolor="#d1d1d1"
     inkscape:document-units="mm"
     inkscape:zoom="0.79375"
     inkscape:cx="376.06299"
     inkscape:cy="505.82677"
     inkscape:window-width="1920"
     inkscape:window-height="1129"
     inkscape:window-x="-8"
     inkscape:window-y="-8"
     inkscape:window-maximized="1"
     inkscape:current-layer="svg1" />
  <defs
     id="defs1" />
  <g
     inkscape:label="Layer 1"
     inkscape:groupmode="layer"
     id="layer1" />
  <path
     id="rect4"
     style="fill:#8e002f;fill-opacity:1;stroke:#b82960;stroke-width:0.0492841"
     d="M 1.3311849 1.3311849 L 1.3311849 21.168734 L 25.335404 21.168734 L 25.335404 1.3311849 L 1.3311849 1.3311849 z M 10.644828 3.9222412 L 11.190531 3.9222412 L 12.310876 7.0000895 L 11.874727 7.0000895 L 11.572937 6.1422607 L 10.241752 6.1422607 L 9.9399618 7.0000895 L 9.5244832 7.0000895 L 10.644828 3.9222412 z M 12.778031 3.9222412 L 13.187309 3.9222412 L 13.187309 5.1294027 L 14.723132 5.1294027 L 14.723132 3.9222412 L 15.13241 3.9222412 L 15.13241 7.0000895 L 14.723132 7.0000895 L 14.723132 5.4932048 L 13.187309 5.4932048 L 13.187309 7.0000895 L 12.778031 7.0000895 L 12.778031 3.9222412 z M 10.907345 4.2798421 L 10.365776 5.790861 L 11.446847 5.790861 L 10.907345 4.2798421 z M 12.747026 9.5740926 C 13.693737 9.5740926 14.435812 9.8035364 14.973246 10.262423 C 15.510681 10.717175 15.779399 11.335227 15.779399 12.116573 C 15.779399 12.467973 15.733923 12.796635 15.642973 13.102559 C 15.556156 13.404349 15.425931 13.691671 15.252299 13.964522 C 15.091068 14.220837 14.900899 14.473019 14.681791 14.721065 C 14.466817 14.969112 14.204301 15.244031 13.894242 15.545821 C 13.451893 15.979903 12.995072 16.401583 12.523783 16.81086 C 12.052495 17.216003 11.612211 17.592208 11.202934 17.939473 L 16.170072 17.939473 L 16.170072 18.999874 L 9.9192912 18.999874 L 9.9192912 17.703829 L 11.221537 16.587618 C 11.659754 16.215548 12.066965 15.845545 12.443168 15.477608 C 13.236917 14.708664 13.780555 14.09888 14.074076 13.648263 C 14.367599 13.19351 14.51436 12.703617 14.51436 12.178585 C 14.51436 11.699028 14.355196 11.32489 14.036869 11.056173 C 13.722677 10.783322 13.282392 10.646895 12.71602 10.646895 C 12.339815 10.646895 11.932604 10.713042 11.494389 10.845333 C 11.056173 10.977625 10.628292 11.180197 10.210746 11.453048 L 10.148735 11.453048 L 10.148735 10.150802 C 10.442256 10.006108 10.832931 9.8738158 11.320756 9.7539266 C 11.812716 9.6340374 12.288139 9.5740926 12.747026 9.5740926 z " />
</svg>
