<?xml version="1.0" encoding="UTF-8" standalone="no"?>
<!-- Created with Inkscape (http://www.inkscape.org/) -->

<svg
   width="29mm"
   height="26mm"
   viewBox="0 0 29 26"
   version="1.1"
   id="svg1"
   inkscape:version="1.3.2 (091e20e, 2023-11-25, custom)"
   sodipodi:docname="Aa.svg"
   xmlns:inkscape="http://www.inkscape.org/namespaces/inkscape"
   xmlns:sodipodi="http://sodipodi.sourceforge.net/DTD/sodipodi-0.dtd"
   xmlns="http://www.w3.org/2000/svg"
   xmlns:svg="http://www.w3.org/2000/svg">
  <sodipodi:namedview
     id="namedview1"
     pagecolor="#ffffff"
     bordercolor="#000000"
     borderopacity="0.25"
     inkscape:showpageshadow="2"
     inkscape:pageopacity="0.0"
     inkscape:pagecheckerboard="0"
     inkscape:deskcolor="#d1d1d1"
     inkscape:document-units="mm"
     inkscape:zoom="0.79375"
     inkscape:cx="376.06299"
     inkscape:cy="505.82677"
     inkscape:window-width="1920"
     inkscape:window-height="1129"
     inkscape:window-x="-8"
     inkscape:window-y="-8"
     inkscape:window-maximized="1"
     inkscape:current-layer="svg1" />
  <defs
     id="defs1" />
  <path
     id="path1"
     style="fill:#eb25e7;stroke:#b82960;stroke-width:0.114066"
     d="M 14.49989 1.363741 A 13.469689 12.136356 0 0 0 1.0304281 13.499951 A 13.469689 12.136356 0 0 0 14.49989 25.636161 A 13.469689 12.136356 0 0 0 27.969869 13.499951 A 13.469689 12.136356 0 0 0 14.49989 1.363741 z M 6.6326701 7.413501 L 8.2697795 7.413501 L 8.2697795 18.269686 L 14.421342 18.269686 L 14.421342 19.724894 L 6.6326701 19.724894 L 6.6326701 7.413501 z M 19.092891 10.26604 C 19.743323 10.26604 20.308322 10.321162 20.787878 10.431405 C 21.272947 10.536135 21.691873 10.718037 22.044649 10.977108 C 22.391914 11.230666 22.656499 11.558641 22.838399 11.961027 C 23.0203 12.363413 23.111251 12.862266 23.111251 13.457576 L 23.111251 19.724894 L 21.565092 19.724894 L 21.565092 18.740975 C 21.427289 18.834682 21.239874 18.966974 21.002852 19.13785 C 20.771343 19.303214 20.545343 19.435507 20.324858 19.534725 C 20.065787 19.661504 19.768129 19.766236 19.431889 19.848918 C 19.095649 19.937112 18.701527 19.981209 18.249532 19.981209 C 17.417199 19.981209 16.711639 19.7056 16.132865 19.154386 C 15.554091 18.603172 15.264701 17.900369 15.264701 17.045988 C 15.264701 16.345947 15.413531 15.780947 15.711186 15.351001 C 16.014353 14.915542 16.444304 14.573787 17.001029 14.325741 C 17.563268 14.077695 18.23851 13.909573 19.026746 13.821379 C 19.814981 13.733185 20.661102 13.667038 21.565092 13.622941 L 21.565092 13.383162 C 21.565092 13.030385 21.501702 12.73824 21.374923 12.50673 C 21.253655 12.27522 21.077266 12.093318 20.845756 11.961027 C 20.625271 11.834248 20.360686 11.748809 20.052006 11.704712 C 19.743326 11.660612 19.420864 11.638566 19.084623 11.638566 C 18.676725 11.638566 18.22197 11.693688 17.720365 11.803931 C 17.218761 11.908661 16.700616 12.063002 16.165938 12.266951 L 16.083256 12.266951 L 16.083256 10.68772 C 16.386424 10.605037 16.824642 10.514086 17.397904 10.414868 C 17.971167 10.31565 18.536166 10.26604 19.092891 10.26604 z M 21.565092 14.879712 C 21.091048 14.907272 20.531561 14.948613 19.886641 15.003735 C 19.247233 15.058855 18.740112 15.138782 18.365287 15.243514 C 17.918804 15.370293 17.557756 15.568732 17.282149 15.838826 C 17.006542 16.103409 16.868738 16.469969 16.868738 16.938501 C 16.868738 17.467666 17.028591 17.8673 17.348295 18.137394 C 17.667999 18.401977 18.155828 18.534269 18.811772 18.534269 C 19.357473 18.534269 19.856326 18.429538 20.308321 18.220076 C 20.760316 18.005103 21.179242 17.748786 21.565092 17.451131 L 21.565092 14.879712 z " />
  <g
     inkscape:label="Layer 1"
     inkscape:groupmode="layer"
     id="layer1" />
</svg>
