<?xml version="1.0" encoding="UTF-8" standalone="no"?>
<!-- Created with Inkscape (http://www.inkscape.org/) -->

<svg
   width="26mm"
   height="26mm"
   viewBox="0 0 26 26"
   version="1.1"
   id="svg1"
   inkscape:version="1.3.2 (091e20e, 2023-11-25, custom)"
   sodipodi:docname="b.svg"
   xmlns:inkscape="http://www.inkscape.org/namespaces/inkscape"
   xmlns:sodipodi="http://sodipodi.sourceforge.net/DTD/sodipodi-0.dtd"
   xmlns="http://www.w3.org/2000/svg"
   xmlns:svg="http://www.w3.org/2000/svg">
  <sodipodi:namedview
     id="namedview1"
     pagecolor="#ffffff"
     bordercolor="#000000"
     borderopacity="0.25"
     inkscape:showpageshadow="2"
     inkscape:pageopacity="0.0"
     inkscape:pagecheckerboard="0"
     inkscape:deskcolor="#d1d1d1"
     inkscape:document-units="mm"
     inkscape:zoom="0.79375"
     inkscape:cx="376.06299"
     inkscape:cy="505.82677"
     inkscape:window-width="1920"
     inkscape:window-height="1129"
     inkscape:window-x="-8"
     inkscape:window-y="-8"
     inkscape:window-maximized="1"
     inkscape:current-layer="svg1" />
  <defs
     id="defs1" />
  <g
     inkscape:label="Layer 1"
     inkscape:groupmode="layer"
     id="layer1" />
  <path
     id="rect4"
     style="fill:#8e002f;fill-opacity:1;stroke:#b82960;stroke-width:0.0492841"
     d="M 1.3311849 1.3311849 L 1.3311849 21.168734 L 25.335404 21.168734 L 25.335404 1.3311849 L 1.3311849 1.3311849 z M 10.644828 3.9222412 L 11.190531 3.9222412 L 12.310876 7.0000895 L 11.874727 7.0000895 L 11.572937 6.1422607 L 10.241752 6.1422607 L 9.9399618 7.0000895 L 9.5244832 7.0000895 L 10.644828 3.9222412 z M 12.778031 3.9222412 L 13.187309 3.9222412 L 13.187309 5.1294027 L 14.723132 5.1294027 L 14.723132 3.9222412 L 15.13241 3.9222412 L 15.13241 7.0000895 L 14.723132 7.0000895 L 14.723132 5.4932048 L 13.187309 5.4932048 L 13.187309 7.0000895 L 12.778031 7.0000895 L 12.778031 3.9222412 z M 10.907345 4.2798421 L 10.365776 5.790861 L 11.446847 5.790861 L 10.907345 4.2798421 z M 12.82144 9.5740926 C 13.272057 9.5740926 13.668933 9.6154339 14.012065 9.698116 C 14.355196 9.7807983 14.665255 9.9130904 14.94224 10.094991 C 15.239897 10.293429 15.465206 10.533208 15.618168 10.814327 C 15.771131 11.095447 15.847611 11.424109 15.847611 11.800313 C 15.847611 12.312943 15.665711 12.761495 15.301908 13.145968 C 14.942241 13.526306 14.516426 13.766085 14.024467 13.865304 L 14.024467 13.95212 C 14.222904 13.985193 14.450281 14.055473 14.706596 14.16296 C 14.962911 14.266312 15.179952 14.396537 15.357719 14.553634 C 15.556156 14.7314 15.719454 14.954643 15.847611 15.22336 C 15.975769 15.492078 16.039848 15.839344 16.039848 16.265157 C 16.039848 16.686837 15.963366 17.073377 15.810404 17.424776 C 15.657442 17.776176 15.442468 18.082101 15.165483 18.34255 C 14.855424 18.631937 14.489555 18.846912 14.067875 18.987472 C 13.65033 19.123897 13.191443 19.19211 12.691215 19.19211 C 12.178586 19.19211 11.674223 19.130098 11.178129 19.006075 C 10.682036 18.886186 10.274825 18.753894 9.9564982 18.6092 L 9.9564982 17.313155 L 10.049516 17.313155 C 10.400915 17.544666 10.814328 17.736902 11.28975 17.889864 C 11.765173 18.042827 12.224061 18.119307 12.66641 18.119307 C 12.926859 18.119307 13.203846 18.075899 13.497367 17.989083 C 13.79089 17.902266 14.028602 17.774109 14.210502 17.60461 C 14.400671 17.42271 14.541231 17.222204 14.632182 17.003097 C 14.727266 16.783989 14.774809 16.507002 14.774809 16.172139 C 14.774809 15.84141 14.721066 15.568559 14.613578 15.353585 C 14.510226 15.134477 14.365531 14.962911 14.179496 14.838888 C 13.993462 14.71073 13.768152 14.623913 13.503569 14.578438 C 13.238985 14.528825 12.953731 14.504024 12.647807 14.504024 L 12.089701 14.504024 L 12.089701 13.47463 L 12.523783 13.47463 C 13.152169 13.47463 13.652397 13.344405 14.024467 13.083956 C 14.400671 12.819373 14.588774 12.434899 14.588774 11.930538 C 14.588774 11.707296 14.541231 11.512992 14.446147 11.347628 C 14.351062 11.178129 14.21877 11.039636 14.049272 10.932149 C 13.871504 10.824662 13.681335 10.750248 13.478764 10.708907 C 13.276193 10.667567 13.046749 10.646895 12.790434 10.646895 C 12.397693 10.646895 11.980147 10.717176 11.537797 10.857735 C 11.095447 10.998295 10.677901 11.196733 10.28516 11.453048 L 10.223149 11.453048 L 10.223149 10.157003 C 10.51667 10.012309 10.907345 9.880017 11.39517 9.7601278 C 11.88713 9.6361045 12.362553 9.5740926 12.82144 9.5740926 z " />
</svg>
