<?xml version="1.0" encoding="UTF-8" standalone="no"?>
<!-- Created with Inkscape (http://www.inkscape.org/) -->

<svg
   width="29mm"
   height="26mm"
   viewBox="0 0 29 26"
   version="1.1"
   id="svg1"
   inkscape:version="1.3.2 (091e20e, 2023-11-25, custom)"
   sodipodi:docname="Bb.svg"
   xmlns:inkscape="http://www.inkscape.org/namespaces/inkscape"
   xmlns:sodipodi="http://sodipodi.sourceforge.net/DTD/sodipodi-0.dtd"
   xmlns="http://www.w3.org/2000/svg"
   xmlns:svg="http://www.w3.org/2000/svg">
  <sodipodi:namedview
     id="namedview1"
     pagecolor="#ffffff"
     bordercolor="#000000"
     borderopacity="0.25"
     inkscape:showpageshadow="2"
     inkscape:pageopacity="0.0"
     inkscape:pagecheckerboard="0"
     inkscape:deskcolor="#d1d1d1"
     inkscape:document-units="mm"
     inkscape:zoom="0.79375"
     inkscape:cx="376.06299"
     inkscape:cy="505.82677"
     inkscape:window-width="1920"
     inkscape:window-height="1129"
     inkscape:window-x="-8"
     inkscape:window-y="-8"
     inkscape:window-maximized="1"
     inkscape:current-layer="svg1" />
  <defs
     id="defs1" />
  <path
     id="path1"
     style="fill:#eb25e7;stroke:#b82960;stroke-width:0.114066"
     d="M 14.49989 1.363741 A 13.469689 12.136356 0 0 0 1.0304281 13.499951 A 13.469689 12.136356 0 0 0 14.49989 25.636161 A 13.469689 12.136356 0 0 0 27.969869 13.499951 A 13.469689 12.136356 0 0 0 14.49989 1.363741 z M 9.1958211 7.1902588 C 10.061227 7.1902588 10.854981 7.2729416 11.577071 7.4383057 C 12.299161 7.6036698 12.938575 7.8076206 13.4953 8.0501546 L 13.4953 9.9849202 L 13.379545 9.9849202 C 12.911013 9.5880464 12.293649 9.2600714 11.527462 9.001001 C 10.766787 8.7364184 9.9868127 8.604126 9.1875529 8.604126 C 8.3111232 8.604126 7.6055635 8.7860281 7.0708862 9.1498291 C 6.5417211 9.5136301 6.2771362 9.9821659 6.2771362 10.555428 C 6.2771362 11.068057 6.4094287 11.470446 6.6740112 11.76259 C 6.9385938 12.054733 7.4043735 12.277976 8.071342 12.432316 C 8.4241187 12.509486 8.9257276 12.603193 9.5761597 12.713436 C 10.226592 12.823679 10.77781 12.936678 11.229806 13.052433 C 12.14482 13.294967 12.833843 13.661528 13.296863 14.152108 C 13.759882 14.642688 13.991394 15.328955 13.991394 16.210897 C 13.991394 16.690453 13.878394 17.164501 13.652397 17.633032 C 13.431911 18.101564 13.120473 18.498441 12.718087 18.823657 C 12.277116 19.176434 11.761726 19.452043 11.171928 19.65048 C 10.587641 19.848917 9.8820817 19.948136 9.0552612 19.948136 C 8.1678073 19.948136 7.3685404 19.865454 6.6574748 19.70009 C 5.9519213 19.534725 5.2325811 19.289433 4.499467 18.964217 L 4.499467 16.913696 L 4.6152222 16.913696 C 5.2380936 17.431837 5.9574338 17.831471 6.77323 18.11259 C 7.5890262 18.393708 8.35522 18.534269 9.0717977 18.534269 C 10.086031 18.534269 10.874273 18.344099 11.436511 17.963761 C 12.004261 17.583424 12.288139 17.076303 12.288139 16.442407 C 12.288139 15.896706 12.15309 15.494316 11.882996 15.235246 C 11.618413 14.976175 11.213267 14.774981 10.667566 14.631665 C 10.254156 14.521422 9.8049126 14.430471 9.3198446 14.358813 C 8.8402887 14.287156 8.3304115 14.196205 7.7902222 14.085962 C 6.6988192 13.854452 5.8885279 13.460331 5.3593628 12.903605 C 4.8357098 12.341367 4.573881 11.611003 4.573881 10.712524 C 4.573881 9.6817549 5.0093437 8.8383905 5.8802612 8.1824463 C 6.7511788 7.5209899 7.856372 7.1902588 9.1958211 7.1902588 z M 16.430522 10.489282 L 17.984949 10.489282 L 17.984949 15.747876 C 17.984949 16.216408 18.006997 16.618797 18.051095 16.955037 C 18.095192 17.285766 18.188899 17.569643 18.332214 17.806665 C 18.481042 18.049199 18.673969 18.225589 18.91099 18.335832 C 19.148012 18.446074 19.492524 18.501196 19.944519 18.501196 C 20.346905 18.501196 20.785124 18.396465 21.259167 18.187004 C 21.738723 17.977542 22.18521 17.710201 22.598621 17.384985 L 22.598621 10.489282 L 24.153048 10.489282 L 24.153048 19.724894 L 22.598621 19.724894 L 22.598621 18.699634 C 22.074968 19.113044 21.573359 19.429995 21.093803 19.65048 C 20.614247 19.870966 20.085077 19.981209 19.506303 19.981209 C 18.536167 19.981209 17.780997 19.686307 17.240808 19.096509 C 16.700619 18.501198 16.430522 17.630273 16.430522 16.483748 L 16.430522 10.489282 z " />
  <g
     inkscape:label="Layer 1"
     inkscape:groupmode="layer"
     id="layer1" />
</svg>
