<?xml version="1.0" encoding="UTF-8" standalone="no"?>
<!-- Created with Inkscape (http://www.inkscape.org/) -->

<svg
   width="26mm"
   height="26mm"
   viewBox="0 0 26 26"
   version="1.1"
   id="svg1"
   inkscape:version="1.3.2 (091e20e, 2023-11-25, custom)"
   sodipodi:docname="c.svg"
   xmlns:inkscape="http://www.inkscape.org/namespaces/inkscape"
   xmlns:sodipodi="http://sodipodi.sourceforge.net/DTD/sodipodi-0.dtd"
   xmlns="http://www.w3.org/2000/svg"
   xmlns:svg="http://www.w3.org/2000/svg">
  <sodipodi:namedview
     id="namedview1"
     pagecolor="#ffffff"
     bordercolor="#000000"
     borderopacity="0.25"
     inkscape:showpageshadow="2"
     inkscape:pageopacity="0.0"
     inkscape:pagecheckerboard="0"
     inkscape:deskcolor="#d1d1d1"
     inkscape:document-units="mm"
     inkscape:zoom="9.7568322"
     inkscape:cx="50.374957"
     inkscape:cy="42.483051"
     inkscape:window-width="1920"
     inkscape:window-height="1129"
     inkscape:window-x="-8"
     inkscape:window-y="-8"
     inkscape:window-maximized="1"
     inkscape:current-layer="svg1" />
  <defs
     id="defs1" />
  <g
     inkscape:label="Layer 1"
     inkscape:groupmode="layer"
     id="layer1" />
  <path
     id="rect4"
     style="fill:#8e002f;fill-opacity:1;stroke:#b82960;stroke-width:0.0492841"
     d="M 1.3311849 1.3311849 L 1.3311849 21.168734 L 25.335404 21.168734 L 25.335404 1.3311849 L 1.3311849 1.3311849 z M 10.644828 3.9222412 L 11.190531 3.9222412 L 12.310876 7.0000895 L 11.874727 7.0000895 L 11.572937 6.1422607 L 10.241752 6.1422607 L 9.9399618 7.0000895 L 9.5244832 7.0000895 L 10.644828 3.9222412 z M 12.778031 3.9222412 L 13.187309 3.9222412 L 13.187309 5.1294027 L 14.723132 5.1294027 L 14.723132 3.9222412 L 15.13241 3.9222412 L 15.13241 7.0000895 L 14.723132 7.0000895 L 14.723132 5.4932048 L 13.187309 5.4932048 L 13.187309 7.0000895 L 12.778031 7.0000895 L 12.778031 3.9222412 z M 10.907345 4.2798421 L 10.365776 5.790861 L 11.446847 5.790861 L 10.907345 4.2798421 z M 13.869438 9.7663289 L 15.010453 9.7663289 L 15.010453 15.409395 L 16.380912 15.409395 L 16.380912 16.401583 L 15.010453 16.401583 L 15.010453 18.999874 L 13.819828 18.999874 L 13.819828 16.401583 L 9.3983927 16.401583 L 9.3983927 14.975313 L 13.869438 9.7663289 z M 13.819828 11.242208 L 10.241752 15.409395 L 13.819828 15.409395 L 13.819828 11.242208 z " />
</svg>
