<?xml version="1.0" encoding="UTF-8" standalone="no"?>
<!-- Created with Inkscape (http://www.inkscape.org/) -->

<svg
   width="29mm"
   height="26mm"
   viewBox="0 0 29 26"
   version="1.1"
   id="svg1"
   inkscape:version="1.3.2 (091e20e, 2023-11-25, custom)"
   sodipodi:docname="Cc.svg"
   xmlns:inkscape="http://www.inkscape.org/namespaces/inkscape"
   xmlns:sodipodi="http://sodipodi.sourceforge.net/DTD/sodipodi-0.dtd"
   xmlns="http://www.w3.org/2000/svg"
   xmlns:svg="http://www.w3.org/2000/svg">
  <sodipodi:namedview
     id="namedview1"
     pagecolor="#ffffff"
     bordercolor="#000000"
     borderopacity="0.25"
     inkscape:showpageshadow="2"
     inkscape:pageopacity="0.0"
     inkscape:pagecheckerboard="0"
     inkscape:deskcolor="#d1d1d1"
     inkscape:document-units="mm"
     inkscape:zoom="0.79375"
     inkscape:cx="376.06299"
     inkscape:cy="505.82677"
     inkscape:window-width="1920"
     inkscape:window-height="1129"
     inkscape:window-x="-8"
     inkscape:window-y="-8"
     inkscape:window-maximized="1"
     inkscape:current-layer="svg1" />
  <defs
     id="defs1" />
  <path
     id="path1"
     style="fill:#eb25e7;stroke:#b82960;stroke-width:0.114066"
     d="M 14.49989 1.363741 A 13.469689 12.136356 0 0 0 1.0304281 13.499951 A 13.469689 12.136356 0 0 0 14.49989 25.636161 A 13.469689 12.136356 0 0 0 27.969869 13.499951 A 13.469689 12.136356 0 0 0 14.49989 1.363741 z M 3.9868368 7.413501 L 6.2192586 7.413501 L 9.5017456 14.267863 L 12.676746 7.413501 L 14.950509 7.413501 L 14.950509 19.724894 L 13.313399 19.724894 L 13.313399 9.1167562 L 9.8903524 16.33492 L 8.9147013 16.33492 L 5.5164591 9.1167562 L 5.5164591 19.724894 L 3.9868368 19.724894 L 3.9868368 7.413501 z M 21.746993 10.232967 C 23.042345 10.232967 24.07588 10.671186 24.847579 11.547616 C 25.619278 12.418533 26.005131 13.606409 26.005131 15.111222 C 26.005131 16.616036 25.619278 17.803912 24.847579 18.674829 C 24.07588 19.545747 23.042345 19.981209 21.746993 19.981209 C 20.440617 19.981209 19.40157 19.545747 18.629871 18.674829 C 17.863684 17.803912 17.480587 16.616036 17.480587 15.111222 C 17.480587 13.606409 17.863684 12.418533 18.629871 11.547616 C 19.40157 10.671186 20.440617 10.232967 21.746993 10.232967 z M 21.746993 11.57242 C 20.903636 11.57242 20.247686 11.864566 19.779154 12.448853 C 19.316135 13.027627 19.084623 13.915089 19.084623 15.111222 C 19.084623 16.268771 19.318891 17.147965 19.787423 17.748787 C 20.255954 18.344098 20.909148 18.641756 21.746993 18.641756 C 22.573813 18.641756 23.221495 18.346854 23.690027 17.757056 C 24.164071 17.161745 24.401095 16.279795 24.401095 15.111222 C 24.401095 13.915089 24.166827 13.027627 23.698295 12.448853 C 23.229763 11.864566 22.579326 11.57242 21.746993 11.57242 z " />
  <g
     inkscape:label="Layer 1"
     inkscape:groupmode="layer"
     id="layer1" />
</svg>
