<?xml version="1.0" encoding="UTF-8" standalone="no"?>
<!-- Created with Inkscape (http://www.inkscape.org/) -->

<svg
   width="26mm"
   height="26mm"
   viewBox="0 0 26 26"
   version="1.1"
   id="svg1"
   inkscape:version="1.3.2 (091e20e, 2023-11-25, custom)"
   sodipodi:docname="d.svg"
   xmlns:inkscape="http://www.inkscape.org/namespaces/inkscape"
   xmlns:sodipodi="http://sodipodi.sourceforge.net/DTD/sodipodi-0.dtd"
   xmlns="http://www.w3.org/2000/svg"
   xmlns:svg="http://www.w3.org/2000/svg">
  <sodipodi:namedview
     id="namedview1"
     pagecolor="#ffffff"
     bordercolor="#000000"
     borderopacity="0.25"
     inkscape:showpageshadow="2"
     inkscape:pageopacity="0.0"
     inkscape:pagecheckerboard="0"
     inkscape:deskcolor="#d1d1d1"
     inkscape:document-units="mm"
     inkscape:zoom="9.7568322"
     inkscape:cx="50.374957"
     inkscape:cy="42.483051"
     inkscape:window-width="1920"
     inkscape:window-height="1129"
     inkscape:window-x="-8"
     inkscape:window-y="-8"
     inkscape:window-maximized="1"
     inkscape:current-layer="svg1" />
  <defs
     id="defs1" />
  <g
     inkscape:label="Layer 1"
     inkscape:groupmode="layer"
     id="layer1" />
  <path
     id="rect4"
     style="fill:#8e002f;fill-opacity:1;stroke:#b82960;stroke-width:0.0492841"
     d="M 1.3311849 1.3311849 L 1.3311849 21.168734 L 25.335404 21.168734 L 25.335404 1.3311849 L 1.3311849 1.3311849 z M 10.644828 3.9222412 L 11.190531 3.9222412 L 12.310876 7.0000895 L 11.874727 7.0000895 L 11.572937 6.1422607 L 10.241752 6.1422607 L 9.9399618 7.0000895 L 9.5244832 7.0000895 L 10.644828 3.9222412 z M 12.778031 3.9222412 L 13.187309 3.9222412 L 13.187309 5.1294027 L 14.723132 5.1294027 L 14.723132 3.9222412 L 15.13241 3.9222412 L 15.13241 7.0000895 L 14.723132 7.0000895 L 14.723132 5.4932048 L 13.187309 5.4932048 L 13.187309 7.0000895 L 12.778031 7.0000895 L 12.778031 3.9222412 z M 10.907345 4.2798421 L 10.365776 5.790861 L 11.446847 5.790861 L 10.907345 4.2798421 z M 10.477397 9.7663289 L 16.033647 9.7663289 L 16.033647 10.851534 L 11.674223 10.851534 L 11.674223 13.307198 C 11.851989 13.290665 12.033891 13.278264 12.219926 13.269991 C 12.405961 13.261724 12.567192 13.257589 12.703617 13.257589 C 13.203845 13.257589 13.642061 13.300997 14.018266 13.387813 C 14.39447 13.470495 14.739669 13.619324 15.053861 13.834298 C 15.38459 14.061673 15.640906 14.355196 15.822807 14.714864 C 16.004707 15.074532 16.095658 15.525151 16.095658 16.06672 C 16.095658 16.496667 16.01711 16.908012 15.860014 17.300753 C 15.702917 17.693493 15.487943 18.024223 15.215092 18.29294 C 14.917436 18.582328 14.561902 18.80557 14.14849 18.962667 C 13.739213 19.115629 13.263789 19.19211 12.722221 19.19211 C 12.217859 19.19211 11.7321 19.138366 11.264945 19.03088 C 10.797791 18.927527 10.402982 18.801437 10.080522 18.652608 L 10.080522 17.344161 L 10.167338 17.344161 C 10.506335 17.559135 10.903211 17.743103 11.357963 17.896065 C 11.812715 18.044894 12.259201 18.119307 12.697416 18.119307 C 12.990938 18.119307 13.274125 18.077967 13.546977 17.995284 C 13.823962 17.912602 14.069942 17.767908 14.284916 17.561202 C 14.466817 17.383435 14.603243 17.170528 14.694194 16.922481 C 14.789278 16.674435 14.83682 16.387113 14.83682 16.060518 C 14.83682 15.742191 14.78101 15.473474 14.669389 15.254366 C 14.561902 15.035258 14.411006 14.859558 14.216703 14.727266 C 14.00173 14.57017 13.739212 14.460616 13.429154 14.398604 C 13.12323 14.332458 12.780098 14.299386 12.39976 14.299386 C 12.035958 14.299386 11.684558 14.324193 11.345561 14.3738 C 11.010698 14.423406 10.721309 14.473016 10.477397 14.522628 L 10.477397 9.7663289 z " />
</svg>
