<?xml version="1.0" encoding="UTF-8" standalone="no"?>
<!-- Created with Inkscape (http://www.inkscape.org/) -->

<svg
   width="29mm"
   height="26mm"
   viewBox="0 0 29 26"
   version="1.1"
   id="svg1"
   inkscape:version="1.3.2 (091e20e, 2023-11-25, custom)"
   sodipodi:docname="Dd.svg"
   xmlns:inkscape="http://www.inkscape.org/namespaces/inkscape"
   xmlns:sodipodi="http://sodipodi.sourceforge.net/DTD/sodipodi-0.dtd"
   xmlns="http://www.w3.org/2000/svg"
   xmlns:svg="http://www.w3.org/2000/svg">
  <sodipodi:namedview
     id="namedview1"
     pagecolor="#ffffff"
     bordercolor="#000000"
     borderopacity="0.25"
     inkscape:showpageshadow="2"
     inkscape:pageopacity="0.0"
     inkscape:pagecheckerboard="0"
     inkscape:deskcolor="#d1d1d1"
     inkscape:document-units="mm"
     inkscape:zoom="0.79375"
     inkscape:cx="376.06299"
     inkscape:cy="505.82677"
     inkscape:window-width="1920"
     inkscape:window-height="1129"
     inkscape:window-x="-8"
     inkscape:window-y="-8"
     inkscape:window-maximized="1"
     inkscape:current-layer="svg1" />
  <defs
     id="defs1" />
  <path
     id="path1"
     style="fill:#eb25e7;stroke:#b82960;stroke-width:0.114066"
     d="M 14.49989 1.363741 A 13.469689 12.136356 0 0 0 1.0304281 13.499951 A 13.469689 12.136356 0 0 0 14.49989 25.636161 A 13.469689 12.136356 0 0 0 27.969869 13.499951 A 13.469689 12.136356 0 0 0 14.49989 1.363741 z M 3.9868368 7.413501 L 6.2192586 7.413501 L 9.5017456 14.267863 L 12.676746 7.413501 L 14.950509 7.413501 L 14.950509 19.724894 L 13.313399 19.724894 L 13.313399 9.1167562 L 9.8903524 16.33492 L 8.9147013 16.33492 L 5.5164591 9.1167562 L 5.5164591 19.724894 L 3.9868368 19.724894 L 3.9868368 7.413501 z M 21.970235 10.232967 C 23.215978 10.232967 24.175098 10.596771 24.847579 11.324373 C 25.525572 12.051975 25.864571 13.08551 25.864571 14.424959 L 25.864571 15.268319 L 19.059819 15.268319 C 19.059819 15.836069 19.145257 16.332165 19.316134 16.7566 C 19.48701 17.175522 19.721278 17.520034 20.018933 17.790129 C 20.305564 18.054711 20.644564 18.25315 21.035925 18.385441 C 21.432799 18.517732 21.868262 18.583879 22.342306 18.583879 C 22.970689 18.583879 23.601834 18.459854 24.23573 18.211808 C 24.875138 17.95825 25.329893 17.710202 25.599988 17.467668 L 25.68267 17.467668 L 25.68267 19.162655 C 25.159017 19.38314 24.624335 19.567798 24.078634 19.716626 C 23.532932 19.865454 22.959665 19.939868 22.358842 19.939868 C 20.826468 19.939868 19.630324 19.526454 18.770431 18.699634 C 17.910537 17.867301 17.480587 16.687693 17.480587 15.160832 C 17.480587 13.650506 17.891245 12.451606 18.712553 11.564152 C 19.539373 10.676698 20.625274 10.232967 21.970235 10.232967 z M 21.887553 11.514543 C 21.05522 11.514543 20.391002 11.759835 19.89491 12.250415 C 19.40433 12.740995 19.125964 13.350092 19.059819 14.077694 L 24.351485 14.077694 C 24.345973 13.261897 24.139266 12.630752 23.731368 12.184269 C 23.328982 11.737786 22.714373 11.514543 21.887553 11.514543 z " />
  <g
     inkscape:label="Layer 1"
     inkscape:groupmode="layer"
     id="layer1" />
</svg>
