<?xml version="1.0" encoding="UTF-8" standalone="no"?>
<!-- Created with Inkscape (http://www.inkscape.org/) -->

<svg
   width="26mm"
   height="26mm"
   viewBox="0 0 26 26"
   version="1.1"
   id="svg1"
   inkscape:version="1.3.2 (091e20e, 2023-11-25, custom)"
   sodipodi:docname="e.svg"
   xmlns:inkscape="http://www.inkscape.org/namespaces/inkscape"
   xmlns:sodipodi="http://sodipodi.sourceforge.net/DTD/sodipodi-0.dtd"
   xmlns="http://www.w3.org/2000/svg"
   xmlns:svg="http://www.w3.org/2000/svg">
  <sodipodi:namedview
     id="namedview1"
     pagecolor="#ffffff"
     bordercolor="#000000"
     borderopacity="0.25"
     inkscape:showpageshadow="2"
     inkscape:pageopacity="0.0"
     inkscape:pagecheckerboard="0"
     inkscape:deskcolor="#d1d1d1"
     inkscape:document-units="mm"
     inkscape:zoom="9.7568322"
     inkscape:cx="50.374957"
     inkscape:cy="42.483051"
     inkscape:window-width="1920"
     inkscape:window-height="1129"
     inkscape:window-x="-8"
     inkscape:window-y="-8"
     inkscape:window-maximized="1"
     inkscape:current-layer="svg1" />
  <defs
     id="defs1" />
  <g
     inkscape:label="Layer 1"
     inkscape:groupmode="layer"
     id="layer1" />
  <path
     id="rect4"
     style="fill:#8e002f;fill-opacity:1;stroke:#b82960;stroke-width:0.0492841"
     d="M 1.3311849 1.3311849 L 1.3311849 21.168734 L 25.335404 21.168734 L 25.335404 1.3311849 L 1.3311849 1.3311849 z M 10.644828 3.9222412 L 11.190531 3.9222412 L 12.310876 7.0000895 L 11.874727 7.0000895 L 11.572937 6.1422607 L 10.241752 6.1422607 L 9.9399618 7.0000895 L 9.5244832 7.0000895 L 10.644828 3.9222412 z M 12.778031 3.9222412 L 13.187309 3.9222412 L 13.187309 5.1294027 L 14.723132 5.1294027 L 14.723132 3.9222412 L 15.13241 3.9222412 L 15.13241 7.0000895 L 14.723132 7.0000895 L 14.723132 5.4932048 L 13.187309 5.4932048 L 13.187309 7.0000895 L 12.778031 7.0000895 L 12.778031 3.9222412 z M 10.907345 4.2798421 L 10.365776 5.790861 L 11.446847 5.790861 L 10.907345 4.2798421 z M 14.291117 9.5926961 C 14.53503 9.5926961 14.73967 9.6030313 14.905033 9.623702 C 15.070398 9.6443726 15.23783 9.6815797 15.407328 9.7353231 L 15.407328 10.919747 L 15.345317 10.919747 C 15.229561 10.857734 15.053861 10.799856 14.818217 10.746114 C 14.586707 10.688234 14.348995 10.659298 14.105082 10.659298 C 13.216248 10.659298 12.507246 10.938351 11.97808 11.496456 C 11.448914 12.050427 11.140922 12.80077 11.054106 13.747481 C 11.401371 13.536641 11.742436 13.377478 12.077299 13.269991 C 12.416296 13.15837 12.80697 13.102559 13.24932 13.102559 C 13.642061 13.102559 13.98726 13.139767 14.284916 13.214181 C 14.586707 13.28446 14.894698 13.429155 15.208891 13.648263 C 15.572692 13.900443 15.845544 14.218771 16.027445 14.603243 C 16.21348 14.987715 16.306498 15.454871 16.306498 16.004708 C 16.306498 16.943151 15.996438 17.710031 15.376322 18.305343 C 14.76034 18.89652 14.003795 19.19211 13.106694 19.19211 C 12.651941 19.19211 12.238529 19.12183 11.866459 18.98127 C 11.49439 18.840711 11.165727 18.631938 10.880473 18.354952 C 10.524939 18.011821 10.25002 17.557068 10.055717 16.990694 C 9.8655479 16.424321 9.7704631 15.742191 9.7704631 14.944307 C 9.7704631 14.125754 9.8572799 13.400215 10.030912 12.767696 C 10.208679 12.135177 10.489799 11.572936 10.874272 11.080977 C 11.238073 10.613823 11.707296 10.25002 12.281938 9.9895711 C 12.856579 9.7249881 13.526307 9.5926961 14.291117 9.5926961 z M 12.957865 14.119552 C 12.606466 14.119552 12.279871 14.160893 11.97808 14.243575 C 11.676291 14.326258 11.366231 14.454415 11.047904 14.628048 C 11.039638 14.718998 11.033434 14.807882 11.029301 14.894698 C 11.025168 14.977381 11.0231 15.082801 11.0231 15.210958 C 11.0231 15.864147 11.089246 16.380913 11.221537 16.761251 C 11.357963 17.137455 11.543998 17.435112 11.779643 17.65422 C 11.969812 17.83612 12.174451 17.970479 12.393559 18.057296 C 12.616801 18.139978 12.858647 18.181319 13.119096 18.181319 C 13.718542 18.181319 14.189832 17.999418 14.532963 17.635616 C 14.876094 17.26768 15.04766 16.74058 15.04766 16.054317 C 15.04766 15.669845 14.989782 15.351517 14.874028 15.099337 C 14.762406 14.847156 14.576371 14.628047 14.315922 14.442013 C 14.125753 14.309721 13.914912 14.222904 13.683403 14.181563 C 13.451892 14.140223 13.210046 14.119552 12.957865 14.119552 z " />
</svg>
