<?xml version="1.0" encoding="UTF-8" standalone="no"?>
<!-- Created with Inkscape (http://www.inkscape.org/) -->

<svg
   width="29mm"
   height="26mm"
   viewBox="0 0 29 26"
   version="1.1"
   id="svg1"
   inkscape:version="1.3.2 (091e20e, 2023-11-25, custom)"
   sodipodi:docname="Ee.svg"
   xmlns:inkscape="http://www.inkscape.org/namespaces/inkscape"
   xmlns:sodipodi="http://sodipodi.sourceforge.net/DTD/sodipodi-0.dtd"
   xmlns="http://www.w3.org/2000/svg"
   xmlns:svg="http://www.w3.org/2000/svg">
  <sodipodi:namedview
     id="namedview1"
     pagecolor="#ffffff"
     bordercolor="#000000"
     borderopacity="0.25"
     inkscape:showpageshadow="2"
     inkscape:pageopacity="0.0"
     inkscape:pagecheckerboard="0"
     inkscape:deskcolor="#d1d1d1"
     inkscape:document-units="mm"
     inkscape:zoom="0.79375"
     inkscape:cx="376.06299"
     inkscape:cy="505.82677"
     inkscape:window-width="1920"
     inkscape:window-height="1129"
     inkscape:window-x="-8"
     inkscape:window-y="-8"
     inkscape:window-maximized="1"
     inkscape:current-layer="svg1" />
  <defs
     id="defs1" />
  <path
     id="path1"
     style="fill:#eb25e7;stroke:#b82960;stroke-width:0.114066"
     d="M 14.49989 1.363741 A 13.469689 12.136356 0 0 0 1.0304281 13.499951 A 13.469689 12.136356 0 0 0 14.49989 25.636161 A 13.469689 12.136356 0 0 0 27.969869 13.499951 A 13.469689 12.136356 0 0 0 14.49989 1.363741 z M 4.6648315 7.413501 L 6.4176961 7.413501 L 10.278959 18.244881 L 14.140222 7.413501 L 15.810404 7.413501 L 11.329024 19.724894 L 9.1462118 19.724894 L 4.6648315 7.413501 z M 20.564636 10.232967 C 21.810379 10.232967 22.769499 10.596771 23.44198 11.324373 C 24.119973 12.051975 24.458972 13.08551 24.458972 14.424959 L 24.458972 15.268319 L 17.65422 15.268319 C 17.65422 15.836069 17.739658 16.332165 17.910535 16.7566 C 18.081411 17.175522 18.315679 17.520034 18.613334 17.790129 C 18.899965 18.054711 19.238965 18.25315 19.630326 18.385441 C 20.0272 18.517732 20.462663 18.583879 20.936707 18.583879 C 21.56509 18.583879 22.196235 18.459854 22.830131 18.211808 C 23.469539 17.95825 23.924294 17.710202 24.194389 17.467668 L 24.277071 17.467668 L 24.277071 19.162655 C 23.753418 19.38314 23.218736 19.567798 22.673035 19.716626 C 22.127333 19.865454 21.554066 19.939868 20.953243 19.939868 C 19.420869 19.939868 18.224725 19.526454 17.364832 18.699634 C 16.504938 17.867301 16.074988 16.687693 16.074988 15.160832 C 16.074988 13.650506 16.485646 12.451606 17.306954 11.564152 C 18.133774 10.676698 19.219675 10.232967 20.564636 10.232967 z M 20.481954 11.514543 C 19.649621 11.514543 18.985403 11.759835 18.489311 12.250415 C 17.998731 12.740995 17.720365 13.350092 17.65422 14.077694 L 22.945886 14.077694 C 22.940374 13.261897 22.733667 12.630752 22.325769 12.184269 C 21.923383 11.737786 21.308774 11.514543 20.481954 11.514543 z " />
  <g
     inkscape:label="Layer 1"
     inkscape:groupmode="layer"
     id="layer1" />
</svg>
