<?xml version="1.0" encoding="UTF-8" standalone="no"?>
<!-- Created with Inkscape (http://www.inkscape.org/) -->

<svg
   width="29mm"
   height="26mm"
   viewBox="0 0 29 26"
   version="1.1"
   id="svg1"
   inkscape:version="1.3.2 (091e20e, 2023-11-25, custom)"
   sodipodi:docname="Ff.svg"
   xmlns:inkscape="http://www.inkscape.org/namespaces/inkscape"
   xmlns:sodipodi="http://sodipodi.sourceforge.net/DTD/sodipodi-0.dtd"
   xmlns="http://www.w3.org/2000/svg"
   xmlns:svg="http://www.w3.org/2000/svg">
  <sodipodi:namedview
     id="namedview1"
     pagecolor="#ffffff"
     bordercolor="#000000"
     borderopacity="0.25"
     inkscape:showpageshadow="2"
     inkscape:pageopacity="0.0"
     inkscape:pagecheckerboard="0"
     inkscape:deskcolor="#d1d1d1"
     inkscape:document-units="mm"
     inkscape:zoom="0.79375"
     inkscape:cx="376.06299"
     inkscape:cy="505.82677"
     inkscape:window-width="1920"
     inkscape:window-height="1129"
     inkscape:window-x="-8"
     inkscape:window-y="-8"
     inkscape:window-maximized="1"
     inkscape:current-layer="svg1" />
  <defs
     id="defs1" />
  <path
     id="path1"
     style="fill:#eb25e7;stroke:#b82960;stroke-width:0.114066"
     d="M 14.49989 1.363741 A 13.469689 12.136356 0 0 0 1.0304281 13.499951 A 13.469689 12.136356 0 0 0 14.49989 25.636161 A 13.469689 12.136356 0 0 0 27.969869 13.499951 A 13.469689 12.136356 0 0 0 14.49989 1.363741 z M 3.9868368 7.413501 L 6.2192586 7.413501 L 9.5017456 14.267863 L 12.676746 7.413501 L 14.950509 7.413501 L 14.950509 19.724894 L 13.313399 19.724894 L 13.313399 9.1167562 L 9.8903524 16.33492 L 8.9147013 16.33492 L 5.5164591 9.1167562 L 5.5164591 19.724894 L 3.9868368 19.724894 L 3.9868368 7.413501 z M 21.29224 10.26604 C 21.942672 10.26604 22.507672 10.321162 22.987227 10.431405 C 23.472295 10.536135 23.891221 10.718037 24.243998 10.977108 C 24.591263 11.230666 24.855848 11.558641 25.037748 11.961027 C 25.219649 12.363413 25.3106 12.862266 25.3106 13.457576 L 25.3106 19.724894 L 23.764441 19.724894 L 23.764441 18.740975 C 23.626638 18.834681 23.439223 18.966974 23.202201 19.13785 C 22.970692 19.303214 22.744692 19.435506 22.524207 19.534725 C 22.265136 19.661504 21.967478 19.766236 21.631238 19.848918 C 21.294997 19.937112 20.900876 19.981209 20.448881 19.981209 C 19.616548 19.981209 18.910989 19.7056 18.332214 19.154386 C 17.75344 18.603173 17.46405 17.900369 17.46405 17.045988 C 17.46405 16.345947 17.612879 15.780948 17.910535 15.351001 C 18.213702 14.915542 18.643653 14.573787 19.200378 14.325741 C 19.762616 14.077694 20.437859 13.909573 21.226095 13.821379 C 22.01433 13.733184 22.860451 13.667038 23.764441 13.622941 L 23.764441 13.383162 C 23.764441 13.030386 23.701051 12.73824 23.574272 12.50673 C 23.453005 12.27522 23.276615 12.093318 23.045105 11.961027 C 22.82462 11.834248 22.560035 11.748809 22.251355 11.704712 C 21.942675 11.660615 21.620212 11.638566 21.283972 11.638566 C 20.876074 11.638566 20.421319 11.693688 19.919714 11.803931 C 19.41811 11.908661 18.899965 12.063002 18.365287 12.266951 L 18.282605 12.266951 L 18.282605 10.68772 C 18.585772 10.605038 19.023991 10.514087 19.597253 10.414868 C 20.170516 10.31565 20.735515 10.26604 21.29224 10.26604 z M 23.764441 14.879712 C 23.290397 14.907273 22.73091 14.948614 22.08599 15.003735 C 21.446583 15.058857 20.939462 15.138783 20.564636 15.243514 C 20.118153 15.370293 19.757105 15.568732 19.481498 15.838826 C 19.205891 16.103409 19.068087 16.469969 19.068087 16.938501 C 19.068087 17.467666 19.22794 17.8673 19.547644 18.137394 C 19.867348 18.401977 20.355176 18.534269 21.011121 18.534269 C 21.556822 18.534269 22.055675 18.429538 22.50767 18.220076 C 22.959665 18.005103 23.378591 17.748787 23.764441 17.451131 L 23.764441 14.879712 z " />
  <g
     inkscape:label="Layer 1"
     inkscape:groupmode="layer"
     id="layer1" />
</svg>
