<?xml version="1.0" encoding="UTF-8" standalone="no"?>
<!-- Created with Inkscape (http://www.inkscape.org/) -->

<svg
   width="26mm"
   height="26mm"
   viewBox="0 0 26 26"
   version="1.1"
   id="svg1"
   inkscape:version="1.3.2 (091e20e, 2023-11-25, custom)"
   sodipodi:docname="g.svg"
   xmlns:inkscape="http://www.inkscape.org/namespaces/inkscape"
   xmlns:sodipodi="http://sodipodi.sourceforge.net/DTD/sodipodi-0.dtd"
   xmlns="http://www.w3.org/2000/svg"
   xmlns:svg="http://www.w3.org/2000/svg">
  <sodipodi:namedview
     id="namedview1"
     pagecolor="#ffffff"
     bordercolor="#000000"
     borderopacity="0.25"
     inkscape:showpageshadow="2"
     inkscape:pageopacity="0.0"
     inkscape:pagecheckerboard="0"
     inkscape:deskcolor="#d1d1d1"
     inkscape:document-units="mm"
     inkscape:zoom="9.7568322"
     inkscape:cx="50.374957"
     inkscape:cy="42.483051"
     inkscape:window-width="1920"
     inkscape:window-height="1129"
     inkscape:window-x="-8"
     inkscape:window-y="-8"
     inkscape:window-maximized="1"
     inkscape:current-layer="svg1" />
  <defs
     id="defs1" />
  <g
     inkscape:label="Layer 1"
     inkscape:groupmode="layer"
     id="layer1" />
  <path
     id="rect4"
     style="fill:#8e002f;fill-opacity:1;stroke:#b82960;stroke-width:0.0492841"
     d="M 1.3311849 1.3311849 L 1.3311849 21.168734 L 25.335404 21.168734 L 25.335404 1.3311849 L 1.3311849 1.3311849 z M 10.644828 3.9222412 L 11.190531 3.9222412 L 12.310876 7.0000895 L 11.874727 7.0000895 L 11.572937 6.1422607 L 10.241752 6.1422607 L 9.9399618 7.0000895 L 9.5244832 7.0000895 L 10.644828 3.9222412 z M 12.778031 3.9222412 L 13.187309 3.9222412 L 13.187309 5.1294027 L 14.723132 5.1294027 L 14.723132 3.9222412 L 15.13241 3.9222412 L 15.13241 7.0000895 L 14.723132 7.0000895 L 14.723132 5.4932048 L 13.187309 5.4932048 L 13.187309 7.0000895 L 12.778031 7.0000895 L 12.778031 3.9222412 z M 10.907345 4.2798421 L 10.365776 5.790861 L 11.446847 5.790861 L 10.907345 4.2798421 z M 12.957865 9.5554891 C 13.879772 9.5554891 14.615646 9.7766645 15.165483 10.219014 C 15.715319 10.661364 15.990238 11.223605 15.990238 11.905733 C 15.990238 12.323279 15.860014 12.734624 15.599565 13.139766 C 15.339116 13.540775 14.956709 13.854968 14.452348 14.082345 L 14.452348 14.119552 C 15.031123 14.367598 15.473474 14.673523 15.779399 15.037325 C 16.085322 15.401127 16.238285 15.864148 16.238285 16.426388 C 16.238285 17.224271 15.926159 17.887798 15.301908 18.416964 C 14.681792 18.94613 13.900442 19.210714 12.957865 19.210714 C 11.95741 19.210714 11.159525 18.952331 10.564213 18.435567 C 9.9730354 17.918804 9.6774455 17.257344 9.6774455 16.451192 C 9.6774455 15.938563 9.8262739 15.475541 10.12393 15.06213 C 10.421586 14.644585 10.841199 14.313855 11.382768 14.069942 L 11.382768 14.032735 C 10.886674 13.768152 10.518738 13.478763 10.278959 13.164571 C 10.043315 12.850379 9.9254924 12.457637 9.9254924 11.986348 C 9.9254924 11.291818 10.210747 10.713041 10.781254 10.25002 C 11.351761 9.7869997 12.0773 9.5554891 12.957865 9.5554891 z M 12.951664 10.467061 C 12.430767 10.467061 12.002885 10.591085 11.668022 10.839132 C 11.337293 11.087178 11.171928 11.422042 11.171928 11.843722 C 11.171928 12.141377 11.25461 12.39976 11.419975 12.618868 C 11.589473 12.833842 11.843722 13.026078 12.182719 13.195577 C 12.335681 13.269991 12.554789 13.367143 12.840043 13.487032 C 13.129431 13.606921 13.410551 13.70614 13.683403 13.784688 C 14.092679 13.511837 14.375867 13.228649 14.532963 12.935128 C 14.69006 12.641606 14.768608 12.302608 14.768608 11.918136 C 14.768608 11.475785 14.597042 11.124385 14.25391 10.863936 C 13.914913 10.599353 13.48083 10.467061 12.951664 10.467061 z M 12.164115 14.355196 C 11.792045 14.557768 11.492321 14.832687 11.264945 15.179952 C 11.041703 15.527218 10.930082 15.919959 10.930082 16.358175 C 10.930082 16.916279 11.122319 17.377234 11.506791 17.741036 C 11.891263 18.104838 12.37909 18.286739 12.970268 18.286739 C 13.573848 18.286739 14.055473 18.13171 14.415141 17.821651 C 14.778942 17.511593 14.960844 17.085778 14.960844 16.54421 C 14.960844 16.163872 14.876094 15.860013 14.706596 15.632638 C 14.541231 15.401127 14.214636 15.169617 13.726811 14.938106 C 13.532508 14.847156 13.3196 14.762407 13.08809 14.683858 C 12.85658 14.60531 12.548587 14.495756 12.164115 14.355196 z " />
</svg>
