<?xml version="1.0" encoding="UTF-8" standalone="no"?>
<!-- Created with Inkscape (http://www.inkscape.org/) -->

<svg
   width="29mm"
   height="26mm"
   viewBox="0 0 29 26"
   version="1.1"
   id="svg1"
   inkscape:version="1.3.2 (091e20e, 2023-11-25, custom)"
   sodipodi:docname="Gg.svg"
   xmlns:inkscape="http://www.inkscape.org/namespaces/inkscape"
   xmlns:sodipodi="http://sodipodi.sourceforge.net/DTD/sodipodi-0.dtd"
   xmlns="http://www.w3.org/2000/svg"
   xmlns:svg="http://www.w3.org/2000/svg">
  <sodipodi:namedview
     id="namedview1"
     pagecolor="#ffffff"
     bordercolor="#000000"
     borderopacity="0.25"
     inkscape:showpageshadow="2"
     inkscape:pageopacity="0.0"
     inkscape:pagecheckerboard="0"
     inkscape:deskcolor="#d1d1d1"
     inkscape:document-units="mm"
     inkscape:zoom="0.79375"
     inkscape:cx="376.06299"
     inkscape:cy="505.82677"
     inkscape:window-width="1920"
     inkscape:window-height="1129"
     inkscape:window-x="-8"
     inkscape:window-y="-8"
     inkscape:window-maximized="1"
     inkscape:current-layer="svg1" />
  <defs
     id="defs1" />
  <path
     id="path1"
     style="fill:#eb25e7;stroke:#b82960;stroke-width:0.114066"
     d="M 14.49989 1.363741 A 13.469689 12.136356 0 0 0 1.0304281 13.499951 A 13.469689 12.136356 0 0 0 14.49989 25.636161 A 13.469689 12.136356 0 0 0 27.969869 13.499951 A 13.469689 12.136356 0 0 0 14.49989 1.363741 z M 7.4346883 7.413501 L 11.67629 7.413501 L 11.67629 16.52509 C 11.67629 17.605468 11.345559 18.437808 10.684102 19.022095 C 10.028158 19.606381 9.1462085 19.898527 8.038269 19.898527 C 7.7736865 19.898527 7.4209066 19.873722 6.9799357 19.824113 C 6.5389648 19.780016 6.1696484 19.724894 5.871993 19.658748 L 5.871993 18.129126 L 5.9629435 18.129126 C 6.1889411 18.206296 6.4673065 18.286223 6.7980347 18.368905 C 7.1287629 18.451587 7.4677623 18.492928 7.8150269 18.492928 C 8.3221434 18.492928 8.7245329 18.43505 9.0221883 18.319295 C 9.3253558 18.20354 9.5485993 18.038175 9.6919149 17.823201 C 9.8407426 17.602716 9.9344497 17.332619 9.9730347 17.012915 C 10.017132 16.693211 10.039181 16.323895 10.039181 15.904972 L 10.039181 8.7198812 L 7.4346883 8.7198812 L 7.4346883 7.413501 z M 14.669389 10.489282 L 16.223816 10.489282 L 16.223816 15.747876 C 16.223816 16.216408 16.245865 16.618797 16.289962 16.955037 C 16.334059 17.285766 16.427766 17.569643 16.571082 17.806665 C 16.719909 18.049199 16.912836 18.225589 17.149858 18.335832 C 17.386879 18.446074 17.731391 18.501196 18.183386 18.501196 C 18.585772 18.501196 19.023991 18.396465 19.498035 18.187004 C 19.977591 17.977542 20.424078 17.710201 20.837488 17.384985 L 20.837488 10.489282 L 22.391915 10.489282 L 22.391915 19.724894 L 20.837488 19.724894 L 20.837488 18.699634 C 20.313835 19.113044 19.812226 19.429995 19.33267 19.65048 C 18.853114 19.870966 18.323944 19.981209 17.74517 19.981209 C 16.775034 19.981209 16.019865 19.686307 15.479675 19.096509 C 14.939486 18.501198 14.669389 17.630273 14.669389 16.483748 L 14.669389 10.489282 z " />
  <g
     inkscape:label="Layer 1"
     inkscape:groupmode="layer"
     id="layer1" />
</svg>
