<?xml version="1.0" encoding="UTF-8" standalone="no"?>
<!-- Created with Inkscape (http://www.inkscape.org/) -->

<svg
   width="26mm"
   height="26mm"
   viewBox="0 0 26 26"
   version="1.1"
   id="svg1"
   inkscape:version="1.3.2 (091e20e, 2023-11-25, custom)"
   sodipodi:docname="h.svg"
   xmlns:inkscape="http://www.inkscape.org/namespaces/inkscape"
   xmlns:sodipodi="http://sodipodi.sourceforge.net/DTD/sodipodi-0.dtd"
   xmlns="http://www.w3.org/2000/svg"
   xmlns:svg="http://www.w3.org/2000/svg">
  <sodipodi:namedview
     id="namedview1"
     pagecolor="#ffffff"
     bordercolor="#000000"
     borderopacity="0.25"
     inkscape:showpageshadow="2"
     inkscape:pageopacity="0.0"
     inkscape:pagecheckerboard="0"
     inkscape:deskcolor="#d1d1d1"
     inkscape:document-units="mm"
     inkscape:zoom="9.7568322"
     inkscape:cx="50.374957"
     inkscape:cy="42.483051"
     inkscape:window-width="1920"
     inkscape:window-height="1129"
     inkscape:window-x="-8"
     inkscape:window-y="-8"
     inkscape:window-maximized="1"
     inkscape:current-layer="svg1" />
  <defs
     id="defs1" />
  <g
     inkscape:label="Layer 1"
     inkscape:groupmode="layer"
     id="layer1" />
  <path
     id="rect4"
     style="fill:#8e002f;fill-opacity:1;stroke:#b82960;stroke-width:0.0492841"
     d="M 1.3311849 1.3311849 L 1.3311849 21.168734 L 25.335404 21.168734 L 25.335404 1.3311849 L 1.3311849 1.3311849 z M 10.644828 3.9222412 L 11.190531 3.9222412 L 12.310876 7.0000895 L 11.874727 7.0000895 L 11.572937 6.1422607 L 10.241752 6.1422607 L 9.9399618 7.0000895 L 9.5244832 7.0000895 L 10.644828 3.9222412 z M 12.778031 3.9222412 L 13.187309 3.9222412 L 13.187309 5.1294027 L 14.723132 5.1294027 L 14.723132 3.9222412 L 15.13241 3.9222412 L 15.13241 7.0000895 L 14.723132 7.0000895 L 14.723132 5.4932048 L 13.187309 5.4932048 L 13.187309 7.0000895 L 12.778031 7.0000895 L 12.778031 3.9222412 z M 10.907345 4.2798421 L 10.365776 5.790861 L 11.446847 5.790861 L 10.907345 4.2798421 z M 12.82144 9.5802938 C 13.267923 9.5802938 13.681336 9.6505739 14.061674 9.7911336 C 14.442012 9.9275593 14.774809 10.134265 15.060063 10.411251 C 15.411462 10.754382 15.682247 11.196733 15.872416 11.738302 C 16.062585 12.275736 16.15767 12.972335 16.15767 13.828097 C 16.15767 14.634248 16.064652 15.365987 15.878617 16.023311 C 15.696717 16.680635 15.419731 17.240809 15.04766 17.703829 C 14.671457 18.175118 14.200167 18.538921 13.633793 18.795235 C 13.06742 19.05155 12.401826 19.179708 11.637016 19.179708 C 11.422042 19.179708 11.21947 19.167307 11.029301 19.142501 C 10.839132 19.121828 10.669633 19.086688 10.520805 19.037081 L 10.520805 17.852657 L 10.582817 17.852657 C 10.702706 17.91467 10.872205 17.974615 11.091313 18.032491 C 11.31042 18.086238 11.554334 18.113106 11.823051 18.113106 C 12.736689 18.113106 13.451892 17.840254 13.968656 17.294552 C 14.489554 16.744715 14.791345 15.98817 14.874028 15.024923 C 14.489555 15.256433 14.127819 15.421798 13.788822 15.521016 C 13.449825 15.620235 13.079821 15.669845 12.678813 15.669845 C 12.298474 15.669845 11.953275 15.632637 11.643217 15.558223 C 11.337293 15.48381 11.029301 15.339115 10.719242 15.124141 C 10.355441 14.87196 10.080521 14.551566 9.8944865 14.16296 C 9.7125856 13.774354 9.6216349 13.309265 9.6216349 12.767696 C 9.6216349 11.825119 9.9316941 11.058239 10.551811 10.467061 C 11.171927 9.8758834 11.928472 9.5802938 12.82144 9.5802938 z M 12.809037 10.591085 C 12.213726 10.591085 11.742436 10.77712 11.39517 11.14919 C 11.052039 11.52126 10.880473 12.044227 10.880473 12.718087 C 10.880473 13.110827 10.936283 13.431221 11.047904 13.679268 C 11.159525 13.927315 11.347628 14.144356 11.612211 14.330391 C 11.798246 14.458549 12.002885 14.545365 12.226127 14.590841 C 12.44937 14.632181 12.697417 14.652852 12.970268 14.652852 C 13.292728 14.652852 13.619324 14.609444 13.950053 14.522628 C 14.280782 14.435811 14.590841 14.309721 14.880229 14.144356 C 14.884362 14.05754 14.888498 13.972791 14.892631 13.890108 C 14.900898 13.803292 14.905033 13.693738 14.905033 13.561446 C 14.905033 12.920659 14.838887 12.405961 14.706596 12.017354 C 14.574304 11.628747 14.392403 11.326957 14.160893 11.111983 C 13.96659 10.925949 13.757817 10.793657 13.534574 10.715108 C 13.311333 10.632426 13.069486 10.591085 12.809037 10.591085 z " />
</svg>
