<?xml version="1.0" encoding="UTF-8" standalone="no"?>
<!-- Created with Inkscape (http://www.inkscape.org/) -->

<svg
   width="29mm"
   height="26mm"
   viewBox="0 0 29 26"
   version="1.1"
   id="svg1"
   inkscape:version="1.3.2 (091e20e, 2023-11-25, custom)"
   sodipodi:docname="Hh.svg"
   xmlns:inkscape="http://www.inkscape.org/namespaces/inkscape"
   xmlns:sodipodi="http://sodipodi.sourceforge.net/DTD/sodipodi-0.dtd"
   xmlns="http://www.w3.org/2000/svg"
   xmlns:svg="http://www.w3.org/2000/svg">
  <sodipodi:namedview
     id="namedview1"
     pagecolor="#ffffff"
     bordercolor="#000000"
     borderopacity="0.25"
     inkscape:showpageshadow="2"
     inkscape:pageopacity="0.0"
     inkscape:pagecheckerboard="0"
     inkscape:deskcolor="#d1d1d1"
     inkscape:document-units="mm"
     inkscape:zoom="0.79375"
     inkscape:cx="376.06299"
     inkscape:cy="505.82677"
     inkscape:window-width="1920"
     inkscape:window-height="1129"
     inkscape:window-x="-8"
     inkscape:window-y="-8"
     inkscape:window-maximized="1"
     inkscape:current-layer="svg1" />
  <defs
     id="defs1" />
  <path
     id="path1"
     style="fill:#eb25e7;stroke:#b82960;stroke-width:0.114066"
     d="M 14.49989 1.363741 A 13.469689 12.136356 0 0 0 1.0304281 13.499951 A 13.469689 12.136356 0 0 0 14.49989 25.636161 A 13.469689 12.136356 0 0 0 27.969869 13.499951 A 13.469689 12.136356 0 0 0 14.49989 1.363741 z M 9.7249878 7.1902588 C 10.590393 7.1902588 11.384148 7.2729416 12.106238 7.4383057 C 12.828328 7.6036698 13.467741 7.8076206 14.024467 8.0501546 L 14.024467 9.9849202 L 13.908712 9.9849202 C 13.44018 9.5880464 12.822815 9.2600714 12.056628 9.001001 C 11.295954 8.7364184 10.515979 8.604126 9.7167196 8.604126 C 8.8402899 8.604126 8.1347301 8.7860281 7.6000529 9.1498291 C 7.0708878 9.5136301 6.8063029 9.9821659 6.8063029 10.555428 C 6.8063029 11.068057 6.9385953 11.470446 7.2031779 11.76259 C 7.4677604 12.054733 7.9335401 12.277976 8.6005086 12.432316 C 8.9532854 12.509486 9.4548942 12.603193 10.105326 12.713436 C 10.755758 12.823679 11.306977 12.936678 11.758972 13.052433 C 12.673987 13.294967 13.36301 13.661528 13.826029 14.152108 C 14.289049 14.642688 14.520561 15.328955 14.520561 16.210897 C 14.520561 16.690453 14.407561 17.164501 14.181563 17.633032 C 13.961078 18.101564 13.649639 18.498441 13.247253 18.823657 C 12.806283 19.176434 12.290893 19.452043 11.701095 19.65048 C 11.116808 19.848917 10.411248 19.948136 9.5844279 19.948136 C 8.6969739 19.948136 7.897707 19.865454 7.1866414 19.70009 C 6.481088 19.534725 5.7617478 19.289433 5.0286336 18.964217 L 5.0286336 16.913696 L 5.1443888 16.913696 C 5.7672603 17.431837 6.4866005 17.831471 7.3023966 18.11259 C 8.1181928 18.393708 8.8843866 18.534269 9.6009644 18.534269 C 10.615197 18.534269 11.40344 18.344099 11.965678 17.963761 C 12.533428 17.583424 12.817306 17.076303 12.817306 16.442407 C 12.817306 15.896706 12.682257 15.494316 12.412162 15.235246 C 12.14758 14.976175 11.742434 14.774981 11.196733 14.631665 C 10.783322 14.521422 10.334079 14.430471 9.8490112 14.358813 C 9.3694554 14.287156 8.8595782 14.196205 8.3193888 14.085962 C 7.2279858 13.854452 6.4176946 13.460331 5.8885295 12.903605 C 5.3648765 12.341367 5.1030477 11.611003 5.1030477 10.712524 C 5.1030477 9.6817549 5.5385103 8.8383905 6.4094279 8.1824463 C 7.2803455 7.5209899 8.3855386 7.1902588 9.7249878 7.1902588 z M 20.184298 10.26604 C 20.83473 10.26604 21.399729 10.321162 21.879285 10.431405 C 22.364353 10.536135 22.783279 10.718037 23.136056 10.977108 C 23.48332 11.230666 23.747905 11.558641 23.929806 11.961027 C 24.111706 12.363413 24.202657 12.862266 24.202657 13.457576 L 24.202657 19.724894 L 22.656498 19.724894 L 22.656498 18.740975 C 22.518695 18.834681 22.33128 18.966974 22.094259 19.13785 C 21.862749 19.303214 21.636749 19.435506 21.416264 19.534725 C 21.157193 19.661504 20.859535 19.766236 20.523295 19.848918 C 20.187055 19.937112 19.792934 19.981209 19.340938 19.981209 C 18.508606 19.981209 17.803046 19.7056 17.224272 19.154386 C 16.645497 18.603173 16.356108 17.900369 16.356108 17.045988 C 16.356108 16.345947 16.504937 15.780948 16.802592 15.351001 C 17.105759 14.915542 17.53571 14.573787 18.092436 14.325741 C 18.654674 14.077694 19.329916 13.909573 20.118152 13.821379 C 20.906387 13.733184 21.752508 13.667038 22.656498 13.622941 L 22.656498 13.383162 C 22.656498 13.030386 22.593108 12.73824 22.466329 12.50673 C 22.345062 12.27522 22.168672 12.093318 21.937162 11.961027 C 21.716677 11.834248 21.452092 11.748809 21.143412 11.704712 C 20.834733 11.660615 20.51227 11.638566 20.176029 11.638566 C 19.768131 11.638566 19.313376 11.693688 18.811772 11.803931 C 18.310167 11.908661 17.792022 12.063002 17.257345 12.266951 L 17.174662 12.266951 L 17.174662 10.68772 C 17.47783 10.605038 17.916049 10.514087 18.489311 10.414868 C 19.062573 10.31565 19.627572 10.26604 20.184298 10.26604 z M 22.656498 14.879712 C 22.182454 14.907273 21.622968 14.948614 20.978048 15.003735 C 20.33864 15.058857 19.831519 15.138783 19.456694 15.243514 C 19.01021 15.370293 18.649162 15.568732 18.373556 15.838826 C 18.097949 16.103409 17.960144 16.469969 17.960144 16.938501 C 17.960144 17.467666 18.119997 17.8673 18.439701 18.137394 C 18.759405 18.401977 19.247234 18.534269 19.903178 18.534269 C 20.448879 18.534269 20.947732 18.429538 21.399727 18.220076 C 21.851723 18.005103 22.270649 17.748787 22.656498 17.451131 L 22.656498 14.879712 z " />
  <g
     inkscape:label="Layer 1"
     inkscape:groupmode="layer"
     id="layer1" />
</svg>
