<?xml version="1.0" encoding="UTF-8" standalone="no"?>
<!-- Created with Inkscape (http://www.inkscape.org/) -->

<svg
   width="26mm"
   height="26mm"
   viewBox="0 0 26 26"
   version="1.1"
   id="svg1"
   inkscape:version="1.3.2 (091e20e, 2023-11-25, custom)"
   sodipodi:docname="i.svg"
   xmlns:inkscape="http://www.inkscape.org/namespaces/inkscape"
   xmlns:sodipodi="http://sodipodi.sourceforge.net/DTD/sodipodi-0.dtd"
   xmlns="http://www.w3.org/2000/svg"
   xmlns:svg="http://www.w3.org/2000/svg">
  <sodipodi:namedview
     id="namedview1"
     pagecolor="#ffffff"
     bordercolor="#000000"
     borderopacity="0.25"
     inkscape:showpageshadow="2"
     inkscape:pageopacity="0.0"
     inkscape:pagecheckerboard="0"
     inkscape:deskcolor="#d1d1d1"
     inkscape:document-units="mm"
     inkscape:zoom="9.7568322"
     inkscape:cx="50.374957"
     inkscape:cy="42.483051"
     inkscape:window-width="1920"
     inkscape:window-height="1129"
     inkscape:window-x="-8"
     inkscape:window-y="-8"
     inkscape:window-maximized="1"
     inkscape:current-layer="svg1" />
  <defs
     id="defs1" />
  <g
     inkscape:label="Layer 1"
     inkscape:groupmode="layer"
     id="layer1" />
  <path
     id="rect4"
     style="fill:#8e002f;fill-opacity:1;stroke:#b82960;stroke-width:0.0492841"
     d="M 1.3311849 1.3311849 L 1.3311849 21.168734 L 25.335404 21.168734 L 25.335404 1.3311849 L 1.3311849 1.3311849 z M 10.644828 3.9222412 L 11.190531 3.9222412 L 12.310876 7.0000895 L 11.874727 7.0000895 L 11.572937 6.1422607 L 10.241752 6.1422607 L 9.9399618 7.0000895 L 9.5244832 7.0000895 L 10.644828 3.9222412 z M 12.778031 3.9222412 L 13.187309 3.9222412 L 13.187309 5.1294027 L 14.723132 5.1294027 L 14.723132 3.9222412 L 15.13241 3.9222412 L 15.13241 7.0000895 L 14.723132 7.0000895 L 14.723132 5.4932048 L 13.187309 5.4932048 L 13.187309 7.0000895 L 12.778031 7.0000895 L 12.778031 3.9222412 z M 10.907345 4.2798421 L 10.365776 5.790861 L 11.446847 5.790861 L 10.907345 4.2798421 z M 16.292546 9.553422 C 17.400487 9.553422 18.208708 9.9523646 18.717204 10.750248 C 19.229834 11.543997 19.486149 12.744961 19.486149 14.353129 C 19.486149 16.010907 19.2257 17.228406 18.704801 18.005619 C 18.188038 18.778698 17.383951 19.165238 16.292546 19.165238 C 15.184604 19.165238 14.374316 18.772497 13.861686 17.987016 C 13.353191 17.201535 13.098942 15.99437 13.098942 14.365531 C 13.098942 12.724289 13.357325 11.512991 13.874089 10.731645 C 14.390853 9.9461637 15.197007 9.553422 16.292546 9.553422 z M 8.0511882 9.7084513 L 9.0123698 9.7084513 L 9.0123698 18.030424 L 10.897526 18.030424 L 10.897526 18.973002 L 5.8993815 18.973002 L 5.8993815 18.030424 L 7.8217448 18.030424 L 7.8217448 11.841654 L 5.8993815 11.841654 L 5.8993815 10.998295 C 6.1598304 10.998295 6.4388837 10.977623 6.7365397 10.936283 C 7.0341957 10.89081 7.2595054 10.826732 7.4124674 10.744047 C 7.6026365 10.640694 7.7514649 10.510469 7.8589518 10.353373 C 7.9705728 10.192143 8.0346517 9.9771686 8.0511882 9.7084513 z M 16.292546 10.576615 C 15.903939 10.576615 15.581478 10.657231 15.325163 10.818461 C 15.072982 10.979692 14.872477 11.223604 14.723649 11.550199 C 14.583089 11.856123 14.485937 12.255066 14.432194 12.747026 C 14.382587 13.238984 14.35778 13.778487 14.35778 14.365531 C 14.35778 15.010452 14.38052 15.549955 14.425993 15.984037 C 14.471466 16.418119 14.568618 16.806727 14.717448 17.149858 C 14.853873 17.472318 15.04611 17.718299 15.294157 17.887797 C 15.546337 18.057296 15.879135 18.142045 16.292546 18.142045 C 16.681152 18.142045 17.003613 18.061429 17.259928 17.900199 C 17.516243 17.738969 17.714682 17.495056 17.855241 17.168461 C 17.999935 16.833598 18.097087 16.440856 18.146696 15.990238 C 18.200436 15.535486 18.227311 14.989782 18.227311 14.353129 C 18.227311 13.724744 18.200436 13.17904 18.146696 12.71602 C 18.097089 12.252999 17.997871 11.860258 17.84904 11.537797 C 17.704346 11.219471 17.505908 10.979692 17.253727 10.818461 C 17.005681 10.657231 16.685287 10.576615 16.292546 10.576615 z " />
</svg>
