<?xml version="1.0" encoding="UTF-8" standalone="no"?>
<!-- Created with Inkscape (http://www.inkscape.org/) -->

<svg
   width="29mm"
   height="26mm"
   viewBox="0 0 29 26"
   version="1.1"
   id="svg1"
   inkscape:version="1.3.2 (091e20e, 2023-11-25, custom)"
   sodipodi:docname="Ii.svg"
   xmlns:inkscape="http://www.inkscape.org/namespaces/inkscape"
   xmlns:sodipodi="http://sodipodi.sourceforge.net/DTD/sodipodi-0.dtd"
   xmlns="http://www.w3.org/2000/svg"
   xmlns:svg="http://www.w3.org/2000/svg">
  <sodipodi:namedview
     id="namedview1"
     pagecolor="#ffffff"
     bordercolor="#000000"
     borderopacity="0.25"
     inkscape:showpageshadow="2"
     inkscape:pageopacity="0.0"
     inkscape:pagecheckerboard="0"
     inkscape:deskcolor="#d1d1d1"
     inkscape:document-units="mm"
     inkscape:zoom="0.79375"
     inkscape:cx="376.06299"
     inkscape:cy="505.82677"
     inkscape:window-width="1920"
     inkscape:window-height="1129"
     inkscape:window-x="-8"
     inkscape:window-y="-8"
     inkscape:window-maximized="1"
     inkscape:current-layer="svg1" />
  <defs
     id="defs1" />
  <path
     id="path1"
     style="fill:#eb25e7;stroke:#b82960;stroke-width:0.114066"
     d="M 14.49989 1.363741 A 13.469689 12.136356 0 0 0 1.0304281 13.499951 A 13.469689 12.136356 0 0 0 14.49989 25.636161 A 13.469689 12.136356 0 0 0 27.969869 13.499951 A 13.469689 12.136356 0 0 0 14.49989 1.363741 z M 5.5743368 7.413501 L 9.0221883 7.413501 C 9.7663267 7.413501 10.386448 7.4631106 10.88254 7.5623291 C 11.378632 7.6560354 11.825119 7.8269132 12.221993 8.0749593 C 12.668476 8.3560783 13.015744 8.7116142 13.26379 9.1415609 C 13.517348 9.5659954 13.644128 10.10619 13.644128 10.762134 C 13.644128 11.649588 13.420885 12.393733 12.974402 12.994556 C 12.527919 13.589866 11.91331 14.03911 11.130587 14.342277 L 15.760795 19.724894 L 13.63586 19.724894 L 9.5182821 14.830103 L 7.2114461 14.830103 L 7.2114461 19.724894 L 5.5743368 19.724894 L 5.5743368 7.413501 z M 7.2114461 8.8190999 L 7.2114461 13.465845 L 8.865092 13.465845 C 9.3832328 13.465845 9.835232 13.421747 10.221082 13.333553 C 10.606931 13.239847 10.934906 13.068969 11.205001 12.820923 C 11.453047 12.589413 11.634949 12.324828 11.750704 12.027173 C 11.871971 11.724005 11.932605 11.340908 11.932605 10.877889 C 11.932605 10.525112 11.869215 10.213674 11.742436 9.9435791 C 11.621169 9.6679723 11.417218 9.4364605 11.130587 9.2490479 C 10.893565 9.0891959 10.612443 8.9789522 10.287227 8.9183187 C 9.9620113 8.852173 9.5789144 8.8190999 9.1379435 8.8190999 L 7.2114461 8.8190999 z M 20.052006 10.26604 C 20.702438 10.26604 21.267437 10.321162 21.746993 10.431405 C 22.232061 10.536135 22.650987 10.718037 23.003764 10.977108 C 23.351028 11.230666 23.615613 11.558641 23.797514 11.961027 C 23.979414 12.363413 24.070365 12.862266 24.070365 13.457576 L 24.070365 19.724894 L 22.524207 19.724894 L 22.524207 18.740975 C 22.386403 18.834681 22.198989 18.966974 21.961967 19.13785 C 21.730457 19.303214 21.504458 19.435506 21.283972 19.534725 C 21.024902 19.661504 20.727244 19.766236 20.391003 19.848918 C 20.054763 19.937112 19.660642 19.981209 19.208647 19.981209 C 18.376314 19.981209 17.670754 19.7056 17.09198 19.154386 C 16.513206 18.603173 16.223816 17.900369 16.223816 17.045988 C 16.223816 16.345947 16.372645 15.780948 16.6703 15.351001 C 16.973468 14.915542 17.403418 14.573787 17.960144 14.325741 C 18.522382 14.077694 19.197625 13.909573 19.98586 13.821379 C 20.774096 13.733184 21.620216 13.667038 22.524207 13.622941 L 22.524207 13.383162 C 22.524207 13.030386 22.460816 12.73824 22.334037 12.50673 C 22.21277 12.27522 22.03638 12.093318 21.804871 11.961027 C 21.584385 11.834248 21.3198 11.748809 21.011121 11.704712 C 20.702441 11.660615 20.379978 11.638566 20.043738 11.638566 C 19.63584 11.638566 19.181084 11.693688 18.67948 11.803931 C 18.177876 11.908661 17.65973 12.063002 17.125053 12.266951 L 17.042371 12.266951 L 17.042371 10.68772 C 17.345538 10.605038 17.783757 10.514087 18.357019 10.414868 C 18.930281 10.31565 19.49528 10.26604 20.052006 10.26604 z M 22.524207 14.879712 C 22.050163 14.907273 21.490676 14.948614 20.845756 15.003735 C 20.206348 15.058857 19.699227 15.138783 19.324402 15.243514 C 18.877919 15.370293 18.516871 15.568732 18.241264 15.838826 C 17.965657 16.103409 17.827852 16.469969 17.827852 16.938501 C 17.827852 17.467666 17.987706 17.8673 18.30741 18.137394 C 18.627114 18.401977 19.114942 18.534269 19.770886 18.534269 C 20.316588 18.534269 20.815441 18.429538 21.267436 18.220076 C 21.719431 18.005103 22.138357 17.748787 22.524207 17.451131 L 22.524207 14.879712 z " />
  <g
     inkscape:label="Layer 1"
     inkscape:groupmode="layer"
     id="layer1" />
</svg>
