<?xml version="1.0" encoding="UTF-8" standalone="no"?>
<!-- Created with Inkscape (http://www.inkscape.org/) -->

<svg
   width="26mm"
   height="26mm"
   viewBox="0 0 26 26"
   version="1.1"
   id="svg1"
   inkscape:version="1.3.2 (091e20e, 2023-11-25, custom)"
   sodipodi:docname="j.svg"
   xmlns:inkscape="http://www.inkscape.org/namespaces/inkscape"
   xmlns:sodipodi="http://sodipodi.sourceforge.net/DTD/sodipodi-0.dtd"
   xmlns="http://www.w3.org/2000/svg"
   xmlns:svg="http://www.w3.org/2000/svg">
  <sodipodi:namedview
     id="namedview1"
     pagecolor="#ffffff"
     bordercolor="#000000"
     borderopacity="0.25"
     inkscape:showpageshadow="2"
     inkscape:pageopacity="0.0"
     inkscape:pagecheckerboard="0"
     inkscape:deskcolor="#d1d1d1"
     inkscape:document-units="mm"
     inkscape:zoom="9.7568322"
     inkscape:cx="50.374957"
     inkscape:cy="42.483051"
     inkscape:window-width="1920"
     inkscape:window-height="1129"
     inkscape:window-x="-8"
     inkscape:window-y="-8"
     inkscape:window-maximized="1"
     inkscape:current-layer="svg1" />
  <defs
     id="defs1" />
  <g
     inkscape:label="Layer 1"
     inkscape:groupmode="layer"
     id="layer1" />
  <path
     id="rect4"
     style="fill:#8e002f;fill-opacity:1;stroke:#b82960;stroke-width:0.0492841"
     d="M 1.3311849 1.3311849 L 1.3311849 21.168734 L 25.335404 21.168734 L 25.335404 1.3311849 L 1.3311849 1.3311849 z M 10.644828 3.9222412 L 11.190531 3.9222412 L 12.310876 7.0000895 L 11.874727 7.0000895 L 11.572937 6.1422607 L 10.241752 6.1422607 L 9.9399618 7.0000895 L 9.5244832 7.0000895 L 10.644828 3.9222412 z M 12.778031 3.9222412 L 13.187309 3.9222412 L 13.187309 5.1294027 L 14.723132 5.1294027 L 14.723132 3.9222412 L 15.13241 3.9222412 L 15.13241 7.0000895 L 14.723132 7.0000895 L 14.723132 5.4932048 L 13.187309 5.4932048 L 13.187309 7.0000895 L 12.778031 7.0000895 L 12.778031 3.9222412 z M 10.907345 4.2798421 L 10.365776 5.790861 L 11.446847 5.790861 L 10.907345 4.2798421 z M 8.0511882 9.7084513 L 9.0123698 9.7084513 L 9.0123698 18.030424 L 10.897526 18.030424 L 10.897526 18.973002 L 5.8993815 18.973002 L 5.8993815 18.030424 L 7.8217448 18.030424 L 7.8217448 11.841654 L 5.8993815 11.841654 L 5.8993815 10.998295 C 6.1598304 10.998295 6.4388837 10.977623 6.7365397 10.936283 C 7.0341957 10.89081 7.2595054 10.826732 7.4124674 10.744047 C 7.6026365 10.640694 7.7514649 10.510469 7.8589518 10.353373 C 7.9705728 10.192143 8.0346517 9.9771686 8.0511882 9.7084513 z M 16.125114 9.7084513 L 17.086296 9.7084513 L 17.086296 18.030424 L 18.971452 18.030424 L 18.971452 18.973002 L 13.973307 18.973002 L 13.973307 18.030424 L 15.895671 18.030424 L 15.895671 11.841654 L 13.973307 11.841654 L 13.973307 10.998295 C 14.233756 10.998295 14.51281 10.977623 14.810465 10.936283 C 15.108122 10.89081 15.333431 10.826732 15.486393 10.744047 C 15.676562 10.640694 15.825391 10.510469 15.932878 10.353373 C 16.044499 10.192143 16.108577 9.9771686 16.125114 9.7084513 z " />
</svg>
