<?xml version="1.0" encoding="UTF-8" standalone="no"?>
<!-- Created with Inkscape (http://www.inkscape.org/) -->

<svg
   width="29mm"
   height="26mm"
   viewBox="0 0 29 26"
   version="1.1"
   id="svg1"
   inkscape:version="1.3.2 (091e20e, 2023-11-25, custom)"
   sodipodi:docname="Jj.svg"
   xmlns:inkscape="http://www.inkscape.org/namespaces/inkscape"
   xmlns:sodipodi="http://sodipodi.sourceforge.net/DTD/sodipodi-0.dtd"
   xmlns="http://www.w3.org/2000/svg"
   xmlns:svg="http://www.w3.org/2000/svg">
  <sodipodi:namedview
     id="namedview1"
     pagecolor="#ffffff"
     bordercolor="#000000"
     borderopacity="0.25"
     inkscape:showpageshadow="2"
     inkscape:pageopacity="0.0"
     inkscape:pagecheckerboard="0"
     inkscape:deskcolor="#d1d1d1"
     inkscape:document-units="mm"
     inkscape:zoom="0.79375"
     inkscape:cx="376.06299"
     inkscape:cy="505.82677"
     inkscape:window-width="1920"
     inkscape:window-height="1129"
     inkscape:window-x="-8"
     inkscape:window-y="-8"
     inkscape:window-maximized="1"
     inkscape:current-layer="svg1" />
  <defs
     id="defs1" />
  <path
     id="path1"
     style="fill:#eb25e7;stroke:#b82960;stroke-width:0.114066"
     d="M 14.49989 1.363741 A 13.469689 12.136356 0 0 0 1.0304281 13.499951 A 13.469689 12.136356 0 0 0 14.49989 25.636161 A 13.469689 12.136356 0 0 0 27.969869 13.499951 A 13.469689 12.136356 0 0 0 14.49989 1.363741 z M 5.6156779 7.413501 L 7.2527873 7.413501 L 7.2527873 13.837915 L 13.230717 7.413501 L 15.215092 7.413501 L 9.7167196 13.201261 L 15.471407 19.724894 L 13.346472 19.724894 L 8.4764852 14.243058 L 7.2527873 15.549438 L 7.2527873 19.724894 L 5.6156779 19.724894 L 5.6156779 7.413501 z M 20.440613 10.232967 C 21.686356 10.232967 22.645476 10.596771 23.317957 11.324373 C 23.995949 12.051975 24.334949 13.08551 24.334949 14.424959 L 24.334949 15.268319 L 17.530196 15.268319 C 17.530196 15.836069 17.615635 16.332165 17.786511 16.7566 C 17.957387 17.175522 18.191655 17.520034 18.489311 17.790129 C 18.775942 18.054711 19.114941 18.25315 19.506303 18.385441 C 19.903177 18.517732 20.338639 18.583879 20.812683 18.583879 C 21.441067 18.583879 22.072212 18.459854 22.706108 18.211808 C 23.345515 17.95825 23.800271 17.710202 24.070365 17.467668 L 24.153048 17.467668 L 24.153048 19.162655 C 23.629395 19.38314 23.094713 19.567798 22.549011 19.716626 C 22.00331 19.865454 21.430042 19.939868 20.82922 19.939868 C 19.296846 19.939868 18.100701 19.526454 17.240808 18.699634 C 16.380915 17.867301 15.950964 16.687693 15.950964 15.160832 C 15.950964 13.650506 16.361622 12.451606 17.182931 11.564152 C 18.009751 10.676698 19.095652 10.232967 20.440613 10.232967 z M 20.357931 11.514543 C 19.525598 11.514543 18.86138 11.759835 18.365287 12.250415 C 17.874707 12.740995 17.596342 13.350092 17.530196 14.077694 L 22.821863 14.077694 C 22.816351 13.261897 22.609644 12.630752 22.201746 12.184269 C 21.79936 11.737786 21.184751 11.514543 20.357931 11.514543 z " />
  <g
     inkscape:label="Layer 1"
     inkscape:groupmode="layer"
     id="layer1" />
</svg>
