<?xml version="1.0" encoding="UTF-8" standalone="no"?>
<!-- Created with Inkscape (http://www.inkscape.org/) -->

<svg
   width="26mm"
   height="26mm"
   viewBox="0 0 26 26"
   version="1.1"
   id="svg1"
   inkscape:version="1.3.2 (091e20e, 2023-11-25, custom)"
   sodipodi:docname="k.svg"
   xmlns:inkscape="http://www.inkscape.org/namespaces/inkscape"
   xmlns:sodipodi="http://sodipodi.sourceforge.net/DTD/sodipodi-0.dtd"
   xmlns="http://www.w3.org/2000/svg"
   xmlns:svg="http://www.w3.org/2000/svg">
  <sodipodi:namedview
     id="namedview1"
     pagecolor="#ffffff"
     bordercolor="#000000"
     borderopacity="0.25"
     inkscape:showpageshadow="2"
     inkscape:pageopacity="0.0"
     inkscape:pagecheckerboard="0"
     inkscape:deskcolor="#d1d1d1"
     inkscape:document-units="mm"
     inkscape:zoom="9.7568322"
     inkscape:cx="50.374957"
     inkscape:cy="42.483051"
     inkscape:window-width="1920"
     inkscape:window-height="1129"
     inkscape:window-x="-8"
     inkscape:window-y="-8"
     inkscape:window-maximized="1"
     inkscape:current-layer="svg1" />
  <defs
     id="defs1" />
  <g
     inkscape:label="Layer 1"
     inkscape:groupmode="layer"
     id="layer1" />
  <path
     id="rect4"
     style="fill:#8e002f;fill-opacity:1;stroke:#b82960;stroke-width:0.0492841"
     d="M 1.3311849 1.3311849 L 1.3311849 21.168734 L 25.335404 21.168734 L 25.335404 1.3311849 L 1.3311849 1.3311849 z M 10.644828 3.9222412 L 11.190531 3.9222412 L 12.310876 7.0000895 L 11.874727 7.0000895 L 11.572937 6.1422607 L 10.241752 6.1422607 L 9.9399618 7.0000895 L 9.5244832 7.0000895 L 10.644828 3.9222412 z M 12.778031 3.9222412 L 13.187309 3.9222412 L 13.187309 5.1294027 L 14.723132 5.1294027 L 14.723132 3.9222412 L 15.13241 3.9222412 L 15.13241 7.0000895 L 14.723132 7.0000895 L 14.723132 5.4932048 L 13.187309 5.4932048 L 13.187309 7.0000895 L 12.778031 7.0000895 L 12.778031 3.9222412 z M 10.907345 4.2798421 L 10.365776 5.790861 L 11.446847 5.790861 L 10.907345 4.2798421 z M 16.075505 9.5472209 C 17.022216 9.5472209 17.764291 9.7766649 18.301725 10.235551 C 18.839159 10.690303 19.107878 11.308354 19.107878 12.089701 C 19.107878 12.4411 19.062402 12.769763 18.971452 13.075688 C 18.884636 13.377477 18.75441 13.664799 18.580778 13.937651 C 18.419547 14.193965 18.229378 14.446146 18.01027 14.694194 C 17.795296 14.94224 17.53278 15.217159 17.222721 15.518949 C 16.780372 15.953031 16.323551 16.374712 15.852262 16.783988 C 15.380974 17.189131 14.94069 17.565337 14.531413 17.912602 L 19.498551 17.912602 L 19.498551 18.973002 L 13.24777 18.973002 L 13.24777 17.676957 L 14.550016 16.560746 C 14.988232 16.188677 15.395443 15.818672 15.771647 15.450736 C 16.565396 14.681792 17.109034 14.072009 17.402555 13.621391 C 17.696077 13.166639 17.842839 12.676745 17.842839 12.151713 C 17.842839 11.672156 17.683675 11.298018 17.365348 11.029301 C 17.051156 10.75645 16.610872 10.620024 16.044499 10.620024 C 15.668295 10.620024 15.261083 10.68617 14.822868 10.818461 C 14.384652 10.950753 13.95677 11.153325 13.539225 11.426176 L 13.477214 11.426176 L 13.477214 10.12393 C 13.770735 9.9792361 14.16141 9.8469441 14.649235 9.7270549 C 15.141194 9.6071656 15.616618 9.5472209 16.075505 9.5472209 z M 8.0511882 9.7084513 L 9.0123698 9.7084513 L 9.0123698 18.030424 L 10.897526 18.030424 L 10.897526 18.973002 L 5.8993815 18.973002 L 5.8993815 18.030424 L 7.8217448 18.030424 L 7.8217448 11.841654 L 5.8993815 11.841654 L 5.8993815 10.998295 C 6.1598304 10.998295 6.4388837 10.977623 6.7365397 10.936283 C 7.0341957 10.89081 7.2595054 10.826732 7.4124674 10.744047 C 7.6026365 10.640694 7.7514649 10.510469 7.8589518 10.353373 C 7.9705728 10.192143 8.0346517 9.9771686 8.0511882 9.7084513 z " />
</svg>
