<?xml version="1.0" encoding="UTF-8" standalone="no"?>
<!-- Created with Inkscape (http://www.inkscape.org/) -->

<svg
   width="29mm"
   height="26mm"
   viewBox="0 0 29 26"
   version="1.1"
   id="svg1"
   inkscape:version="1.3.2 (091e20e, 2023-11-25, custom)"
   sodipodi:docname="Ll.svg"
   xmlns:inkscape="http://www.inkscape.org/namespaces/inkscape"
   xmlns:sodipodi="http://sodipodi.sourceforge.net/DTD/sodipodi-0.dtd"
   xmlns="http://www.w3.org/2000/svg"
   xmlns:svg="http://www.w3.org/2000/svg">
  <sodipodi:namedview
     id="namedview1"
     pagecolor="#ffffff"
     bordercolor="#000000"
     borderopacity="0.25"
     inkscape:showpageshadow="2"
     inkscape:pageopacity="0.0"
     inkscape:pagecheckerboard="0"
     inkscape:deskcolor="#d1d1d1"
     inkscape:document-units="mm"
     inkscape:zoom="3.175"
     inkscape:cx="100.62992"
     inkscape:cy="104.72441"
     inkscape:window-width="1920"
     inkscape:window-height="1129"
     inkscape:window-x="-8"
     inkscape:window-y="-8"
     inkscape:window-maximized="1"
     inkscape:current-layer="svg1" />
  <defs
     id="defs1" />
  <path
     id="rect5"
     style="fill:#af19af;fill-opacity:1;stroke:#b82960;stroke-width:0.0169117"
     d="M 9.960569 -9.7824465 L 9.9604868 9.2261378 L 28.922967 9.2264289 L 28.92266 -9.7825361 L 9.960569 -9.7824465 z M 11.023311 -8.2904179 L 11.628267 -8.9122017 L 16.735029 -6.4103617 L 16.251408 -5.9132879 L 14.839782 -6.6227722 L 13.363826 -5.1057611 L 14.106563 -3.7087818 L 13.645971 -3.2353782 L 11.023311 -8.2904179 z M 11.763693 -8.1503924 L 13.060244 -5.6783411 L 14.258814 -6.9102502 L 11.763693 -8.1503924 z M 17.393668 -2.3043555 C 18.023371 -2.9515744 18.68981 -3.28989 19.392978 -3.3192997 C 20.09303 -3.3517537 20.737368 -3.0802158 21.325982 -2.5046887 C 21.590703 -2.2458541 21.808049 -1.9726765 21.978015 -1.6851594 C 22.147618 -1.4035142 22.277449 -1.1028486 22.367505 -0.78316694 C 22.453353 -0.48414472 22.516838 -0.16838123 22.557961 0.16411852 C 22.601833 0.49379201 22.634326 0.87576413 22.65544 1.3100287 C 22.688219 1.9321781 22.702032 2.5550888 22.696877 3.1787514 C 22.688607 3.7993696 22.679161 4.3774777 22.668537 4.9130695 L 25.972424 1.5172821 L 26.771259 2.2983561 L 22.613559 6.5717065 L 21.637205 5.6170605 L 21.662514 3.9045961 C 21.673699 3.3309499 21.665819 2.7800193 21.638873 2.251812 C 21.587562 1.1427735 21.489792 0.32195778 21.345562 -0.21062619 C 21.198218 -0.74625519 20.926782 -1.2074374 20.531259 -1.5941672 C 20.169993 -1.9474001 19.782273 -2.1141726 19.368106 -2.0944815 C 18.953574 -2.0806609 18.557944 -1.8801498 18.181222 -1.492949 C 17.930991 -1.2357571 17.709965 -0.90864409 17.518146 -0.51161442 C 17.326328 -0.11458469 17.194326 0.32714955 17.122144 0.81358164 L 17.080897 0.85597599 L 16.099872 -0.10323765 C 16.186105 -0.41048312 16.346302 -0.77501286 16.580461 -1.1968226 C 16.817371 -1.6214593 17.08844 -1.9906381 17.393668 -2.3043555 z "
     transform="matrix(0.73295237,0.68027996,-0.74961917,0.66186939,0,0)" />
  <g
     inkscape:label="Layer 1"
     inkscape:groupmode="layer"
     id="layer1" />
</svg>
