<?xml version="1.0" encoding="UTF-8" standalone="no"?>
<!-- Created with Inkscape (http://www.inkscape.org/) -->

<svg
   width="29mm"
   height="26mm"
   viewBox="0 0 29 26"
   version="1.1"
   id="svg1"
   inkscape:version="1.3.2 (091e20e, 2023-11-25, custom)"
   sodipodi:docname="Mm.svg"
   xmlns:inkscape="http://www.inkscape.org/namespaces/inkscape"
   xmlns:sodipodi="http://sodipodi.sourceforge.net/DTD/sodipodi-0.dtd"
   xmlns="http://www.w3.org/2000/svg"
   xmlns:svg="http://www.w3.org/2000/svg">
  <sodipodi:namedview
     id="namedview1"
     pagecolor="#ffffff"
     bordercolor="#000000"
     borderopacity="0.25"
     inkscape:showpageshadow="2"
     inkscape:pageopacity="0.0"
     inkscape:pagecheckerboard="0"
     inkscape:deskcolor="#d1d1d1"
     inkscape:document-units="mm"
     inkscape:zoom="4.3963502"
     inkscape:cx="80.86253"
     inkscape:cy="86.321604"
     inkscape:window-width="1920"
     inkscape:window-height="1129"
     inkscape:window-x="-8"
     inkscape:window-y="-8"
     inkscape:window-maximized="1"
     inkscape:current-layer="svg1" />
  <defs
     id="defs1" />
  <path
     id="rect5"
     style="fill:#af19af;fill-opacity:1;stroke:#b82960;stroke-width:0.0169117"
     d="M 9.960569 -9.7824465 L 9.9604868 9.2261378 L 28.922967 9.2264289 L 28.92266 -9.7825361 L 9.960569 -9.7824465 z M 11.023311 -8.2904179 L 11.628267 -8.9122017 L 16.735029 -6.4103617 L 16.251408 -5.9132879 L 14.839782 -6.6227722 L 13.363826 -5.1057611 L 14.106563 -3.7087818 L 13.645971 -3.2353782 L 11.023311 -8.2904179 z M 11.763693 -8.1503924 L 13.060244 -5.6783411 L 14.258814 -6.9102502 L 11.763693 -8.1503924 z M 17.443164 -2.3552287 C 17.742892 -2.6632937 18.038017 -2.904168 18.328538 -3.0778465 C 18.619058 -3.2515258 18.924954 -3.3660538 19.246222 -3.42143 C 19.593697 -3.4787571 19.924195 -3.4561722 20.237715 -3.3536771 C 20.551233 -3.251182 20.849698 -3.06138 21.133105 -2.7842744 C 21.519286 -2.4066797 21.736205 -1.9519255 21.783858 -1.4200167 C 21.831146 -0.8939791 21.72855 -0.42625324 21.476069 -0.016841769 L 21.54147 0.047105806 C 21.698375 -0.064196035 21.90256 -0.16787344 22.15402 -0.26393078 C 22.402367 -0.36303242 22.644835 -0.41549193 22.881422 -0.42130735 C 23.14733 -0.42602928 23.424123 -0.37323008 23.711801 -0.26291284 C 23.999477 -0.15259492 24.303707 0.059388115 24.624487 0.37303558 C 24.942151 0.68363727 25.182474 1.0206438 25.345452 1.3840516 C 25.50843 1.7474587 25.595904 2.1197669 25.607873 2.50097 C 25.619644 2.9260995 25.538232 3.3345742 25.363642 3.7263891 C 25.188686 4.1123335 24.934845 4.4762964 24.602119 4.8182773 C 24.261145 5.168736 23.878952 5.4678675 23.455545 5.7156689 C 23.035253 5.9665138 22.664736 6.1474607 22.344 6.2585058 L 21.367646 5.3038598 L 21.429516 5.2402683 C 21.837653 5.1705601 22.257453 5.0295296 22.688911 4.8171759 C 23.120368 4.604823 23.483214 4.3474382 23.777442 4.0450257 C 23.950679 3.8669697 24.102216 3.6456343 24.23205 3.38102 C 24.361884 3.1164065 24.423452 2.8594946 24.416754 2.6102886 C 24.406213 2.3462944 24.34866 2.1025109 24.244094 1.8789417 C 24.142278 1.6525456 23.965237 1.4160195 23.712974 1.169365 C 23.463825 0.9257556 23.222529 0.76151884 22.989087 0.67665607 C 22.755282 0.58592279 22.529791 0.55846919 22.31262 0.59429874 C 22.092334 0.62708325 21.877067 0.7171684 21.666822 0.86455442 C 21.453463 1.0088954 21.245039 1.1856393 21.041554 1.3947842 L 20.670331 1.7763334 L 19.894854 1.0180978 L 20.183583 0.72133739 C 20.601552 0.29174203 20.836177 -0.14616195 20.887453 -0.59236995 C 20.938366 -1.0444492 20.773845 -1.4562431 20.393893 -1.8277477 C 20.225718 -1.9921833 20.04772 -2.1028028 19.859899 -2.159603 C 19.668966 -2.2194483 19.47664 -2.2310189 19.282925 -2.194314 C 19.08371 -2.1519568 18.90116 -2.0767599 18.735276 -1.9687226 C 18.569393 -1.8606861 18.401206 -1.7190519 18.230719 -1.5438222 C 17.969488 -1.2753255 17.744701 -0.93810178 17.556362 -0.53215509 C 17.368022 -0.12620909 17.23978 0.30541441 17.17164 0.76270842 L 17.130393 0.80510277 L 16.15404 -0.14954318 C 16.240272 -0.45678865 16.40047 -0.82131698 16.634629 -1.2431282 C 16.868424 -1.6708091 17.137937 -2.0415113 17.443164 -2.3552287 z "
     transform="matrix(0.73295237,0.68027996,-0.74961917,0.66186939,0,0)" />
  <g
     inkscape:label="Layer 1"
     inkscape:groupmode="layer"
     id="layer1" />
</svg>
