<?xml version="1.0" encoding="UTF-8" standalone="no"?>
<!-- Created with Inkscape (http://www.inkscape.org/) -->

<svg
   width="29mm"
   height="26mm"
   viewBox="0 0 29 26"
   version="1.1"
   id="svg1"
   inkscape:version="1.3.2 (091e20e, 2023-11-25, custom)"
   sodipodi:docname="Oo.svg"
   xmlns:inkscape="http://www.inkscape.org/namespaces/inkscape"
   xmlns:sodipodi="http://sodipodi.sourceforge.net/DTD/sodipodi-0.dtd"
   xmlns="http://www.w3.org/2000/svg"
   xmlns:svg="http://www.w3.org/2000/svg">
  <sodipodi:namedview
     id="namedview1"
     pagecolor="#ffffff"
     bordercolor="#000000"
     borderopacity="0.25"
     inkscape:showpageshadow="2"
     inkscape:pageopacity="0.0"
     inkscape:pagecheckerboard="0"
     inkscape:deskcolor="#d1d1d1"
     inkscape:document-units="mm"
     inkscape:zoom="4.3963502"
     inkscape:cx="80.86253"
     inkscape:cy="86.321604"
     inkscape:window-width="1920"
     inkscape:window-height="1129"
     inkscape:window-x="-8"
     inkscape:window-y="-8"
     inkscape:window-maximized="1"
     inkscape:current-layer="svg1" />
  <defs
     id="defs1" />
  <path
     id="rect5"
     style="fill:#af19af;fill-opacity:1;stroke:#b82960;stroke-width:0.0169117"
     d="M 9.960569 -9.7824465 L 9.9604868 9.2261378 L 28.922967 9.2264289 L 28.92266 -9.7825361 L 9.960569 -9.7824465 z M 11.023311 -8.2904179 L 11.628267 -8.9122017 L 16.735029 -6.4103617 L 16.251408 -5.9132879 L 14.839782 -6.6227722 L 13.363826 -5.1057611 L 14.106563 -3.7087818 L 13.645971 -3.2353782 L 11.023311 -8.2904179 z M 11.763693 -8.1503924 L 13.060244 -5.6783411 L 14.258814 -6.9102502 L 11.763693 -8.1503924 z M 16.028845 -0.6111241 L 19.724578 -4.4096578 L 20.542099 -3.6103131 L 17.642433 -0.62999034 L 19.492367 1.1788125 C 19.598151 1.0451012 19.709799 0.91160901 19.827312 0.77833613 C 19.944823 0.64506251 20.048952 0.53179246 20.139695 0.43852484 C 20.47242 0.096544688 20.796602 -0.17106938 21.112235 -0.364314 C 21.424753 -0.56060366 21.766481 -0.68697456 22.137412 -0.74342638 C 22.528685 -0.80204788 22.920294 -0.76107401 23.312235 -0.62050519 C 23.704175 -0.4799371 24.104139 -0.21019514 24.512119 0.18871478 C 24.836013 0.50540728 25.093647 0.86209804 25.285019 1.2587824 C 25.476392 1.6554675 25.582552 2.0460454 25.603498 2.4305131 C 25.623518 2.8471639 25.555211 3.2546631 25.398577 3.6530057 C 25.241578 4.0454772 24.982966 4.4268365 24.622743 4.7970801 C 24.287268 5.1418864 23.923677 5.4343908 23.531977 5.6745875 C 23.143392 5.9178306 22.785796 6.0948646 22.459195 6.2056909 L 21.473498 5.2419095 L 21.531243 5.1825574 C 21.918673 5.109147 22.321245 4.9733317 22.738954 4.7751098 C 23.153549 4.5738422 23.506587 4.3234148 23.798066 4.0238285 C 23.993301 3.8231629 24.15052 3.599109 24.269719 3.3516722 C 24.391668 3.1014079 24.446278 2.826664 24.43355 2.5274416 C 24.420623 2.2721455 24.350977 2.0220519 24.224611 1.7771675 C 24.100994 1.529456 23.916168 1.2853168 23.670133 1.0447524 C 23.430327 0.81027804 23.19077 0.65049907 22.951465 0.56541821 C 22.714909 0.4775104 22.48218 0.45125266 22.25328 0.48664382 C 21.991945 0.51789649 21.734801 0.61667068 21.481851 0.7829648 C 21.228536 0.94338769 20.975387 1.1536093 20.722405 1.4136281 C 20.480424 1.6623406 20.265376 1.9208478 20.077264 2.1891442 C 19.891904 2.4546152 19.73679 2.6889972 19.611923 2.8922895 L 16.028845 -0.6111241 z "
     transform="matrix(0.73295237,0.68027996,-0.74961917,0.66186939,0,0)" />
  <g
     inkscape:label="Layer 1"
     inkscape:groupmode="layer"
     id="layer1" />
</svg>
