<?xml version="1.0" encoding="UTF-8" standalone="no"?>
<!-- Created with Inkscape (http://www.inkscape.org/) -->

<svg
   width="29mm"
   height="26mm"
   viewBox="0 0 29 26"
   version="1.1"
   id="svg1"
   inkscape:version="1.3.2 (091e20e, 2023-11-25, custom)"
   sodipodi:docname="Pp.svg"
   xmlns:inkscape="http://www.inkscape.org/namespaces/inkscape"
   xmlns:sodipodi="http://sodipodi.sourceforge.net/DTD/sodipodi-0.dtd"
   xmlns="http://www.w3.org/2000/svg"
   xmlns:svg="http://www.w3.org/2000/svg">
  <sodipodi:namedview
     id="namedview1"
     pagecolor="#ffffff"
     bordercolor="#000000"
     borderopacity="0.25"
     inkscape:showpageshadow="2"
     inkscape:pageopacity="0.0"
     inkscape:pagecheckerboard="0"
     inkscape:deskcolor="#d1d1d1"
     inkscape:document-units="mm"
     inkscape:zoom="4.3963502"
     inkscape:cx="80.86253"
     inkscape:cy="86.321604"
     inkscape:window-width="1920"
     inkscape:window-height="1129"
     inkscape:window-x="-8"
     inkscape:window-y="-8"
     inkscape:window-maximized="1"
     inkscape:current-layer="svg1" />
  <defs
     id="defs1" />
  <path
     id="rect5"
     style="fill:#af19af;fill-opacity:1;stroke:#b82960;stroke-width:0.0169117"
     d="M 9.960569 -9.7824465 L 9.9604868 9.2261378 L 28.922967 9.2264289 L 28.92266 -9.7825361 L 9.960569 -9.7824465 z M 11.023311 -8.2904179 L 11.628267 -8.9122017 L 16.735029 -6.4103617 L 16.251408 -5.9132879 L 14.839782 -6.6227722 L 13.363826 -5.1057611 L 14.106563 -3.7087818 L 13.645971 -3.2353782 L 11.023311 -8.2904179 z M 11.763693 -8.1503924 L 13.060244 -5.6783411 L 14.258814 -6.9102502 L 11.763693 -8.1503924 z M 18.434733 -3.3462717 C 18.596971 -3.5130221 18.740872 -3.6453115 18.866436 -3.7431374 C 18.991999 -3.8409633 19.131396 -3.9280222 19.284625 -4.0043133 L 20.176891 -3.1318856 L 20.135644 -3.0894913 C 20.011935 -3.0560317 19.851466 -2.978547 19.654241 -2.8570345 C 19.456651 -2.7413946 19.276736 -2.6001975 19.114499 -2.433447 C 18.523292 -1.8257957 18.261921 -1.1355379 18.330385 -0.36268352 C 18.395736 0.40712654 18.756134 1.1703783 19.411577 1.9270616 C 19.483727 1.5343527 19.590683 1.1839446 19.732443 0.87584313 C 19.873839 0.5618697 20.091652 0.25367501 20.38588 -0.048737533 C 20.647111 -0.3172342 20.90475 -0.52582446 21.158793 -0.67450485 C 21.412473 -0.82905649 21.726337 -0.93303672 22.100383 -0.98644278 C 22.532341 -1.0494037 22.953635 -1.0014646 23.364262 -0.84262485 C 23.777638 -0.68661203 24.191434 -0.40610284 24.605644 -0.0011028483 C 25.312603 0.69013856 25.684084 1.466984 25.720083 2.3294231 C 25.755717 3.1859917 25.47518 3.9209314 24.878474 4.5342351 C 24.575997 4.8451263 24.248071 5.0759894 23.894701 5.2268208 C 23.541331 5.3776523 23.165445 5.4485636 22.767047 5.4395549 C 22.272072 5.4298697 21.746629 5.2828542 21.19072 4.9985093 C 20.637563 4.7113374 20.060444 4.2738948 19.459373 3.6861876 C 18.842729 3.0832544 18.353902 2.4894813 17.992896 1.9048743 C 17.63464 1.3174416 17.398072 0.71111408 17.283194 0.085901065 C 17.173253 -0.5069107 17.211292 -1.0956674 17.397309 -1.680363 C 17.580211 -2.2681037 17.926021 -2.8234087 18.434733 -3.3462717 z M 20.958154 0.89961608 C 20.72442 1.1398507 20.538329 1.3935788 20.399882 1.6608005 C 20.261434 1.9280214 20.151744 2.2343941 20.070812 2.5799121 C 20.133829 2.6525575 20.196663 2.7222667 20.259315 2.7890408 C 20.318852 2.8527692 20.396894 2.9318338 20.493439 3.0262321 C 20.985509 3.507361 21.418802 3.842782 21.793317 4.0324912 C 22.167467 4.2163298 22.515444 4.3083953 22.837243 4.3086886 C 23.100766 4.3126648 23.338099 4.2717299 23.54924 4.185884 C 23.760017 4.0941675 23.952024 3.9592797 24.125261 3.7812238 C 24.523981 3.3714126 24.700427 2.9152276 24.654597 2.4126764 C 24.605652 1.9070788 24.322685 1.401533 23.805702 0.89604391 C 23.516066 0.61284827 23.237762 0.41794116 22.970791 0.31132476 C 22.706571 0.20188288 22.417767 0.16767373 22.104384 0.2086994 C 21.878234 0.24126508 21.672591 0.32145833 21.487459 0.44927903 C 21.302327 0.57709974 21.125891 0.72721256 20.958154 0.89961608 z "
     transform="matrix(0.73295237,0.68027996,-0.74961917,0.66186939,0,0)" />
  <g
     inkscape:label="Layer 1"
     inkscape:groupmode="layer"
     id="layer1" />
</svg>
