<?xml version="1.0" encoding="UTF-8" standalone="no"?>
<!-- Created with Inkscape (http://www.inkscape.org/) -->

<svg
   width="29mm"
   height="26mm"
   viewBox="0 0 29 26"
   version="1.1"
   id="svg1"
   inkscape:version="1.3.2 (091e20e, 2023-11-25, custom)"
   sodipodi:docname="Rr.svg"
   xmlns:inkscape="http://www.inkscape.org/namespaces/inkscape"
   xmlns:sodipodi="http://sodipodi.sourceforge.net/DTD/sodipodi-0.dtd"
   xmlns="http://www.w3.org/2000/svg"
   xmlns:svg="http://www.w3.org/2000/svg">
  <sodipodi:namedview
     id="namedview1"
     pagecolor="#ffffff"
     bordercolor="#000000"
     borderopacity="0.25"
     inkscape:showpageshadow="2"
     inkscape:pageopacity="0.0"
     inkscape:pagecheckerboard="0"
     inkscape:deskcolor="#d1d1d1"
     inkscape:document-units="mm"
     inkscape:zoom="4.3963502"
     inkscape:cx="80.86253"
     inkscape:cy="86.321604"
     inkscape:window-width="1920"
     inkscape:window-height="1129"
     inkscape:window-x="-8"
     inkscape:window-y="-8"
     inkscape:window-maximized="1"
     inkscape:current-layer="svg1" />
  <defs
     id="defs1" />
  <path
     id="rect5"
     style="fill:#af19af;fill-opacity:1;stroke:#b82960;stroke-width:0.0169117"
     d="M 9.960569 -9.7824465 L 9.9604868 9.2261378 L 28.922967 9.2264289 L 28.92266 -9.7825361 L 9.960569 -9.7824465 z M 11.023311 -8.2904179 L 11.628267 -8.9122017 L 16.735029 -6.4103617 L 16.251408 -5.9132879 L 14.839782 -6.6227722 L 13.363826 -5.1057611 L 14.106563 -3.7087818 L 13.645971 -3.2353782 L 11.023311 -8.2904179 z M 11.763693 -8.1503924 L 13.060244 -5.6783411 L 14.258814 -6.9102502 L 11.763693 -8.1503924 z M 17.519893 -2.4621993 C 18.133097 -3.0924603 18.789183 -3.4326275 19.488143 -3.482696 C 20.187102 -3.5327644 20.79352 -3.3065748 21.30739 -2.8041308 C 21.62194 -2.4965741 21.845201 -2.1045547 21.977172 -1.6280773 C 22.106028 -1.1546448 22.088363 -0.66178224 21.924177 -0.14949384 L 21.952207 -0.12208774 C 22.52404 -0.33506063 23.048734 -0.41213512 23.526282 -0.35330958 C 24.00383 -0.29448477 24.454384 -0.05800239 24.877937 0.35613345 C 25.479009 0.94384071 25.771256 1.6459714 25.754675 2.4625147 C 25.740843 3.2762324 25.420449 4.0052919 24.793496 4.6496846 C 24.128045 5.3336456 23.402683 5.6888007 22.617417 5.715146 C 21.834902 5.7386644 21.139989 5.4535236 20.532689 4.8597263 C 20.146508 4.4821316 19.896691 4.0393299 19.78324 3.5313258 C 19.666675 3.0202766 19.696631 2.4897955 19.873107 1.9398911 L 19.845077 1.912485 C 19.315783 2.0567515 18.853042 2.095133 18.456864 2.0276286 C 18.063433 1.957298 17.689198 1.7485601 17.334161 1.4014165 C 16.810948 0.88983656 16.564672 0.26850278 16.595336 -0.46257706 C 16.626 -1.1936576 16.934186 -1.8602004 17.519893 -2.4621993 z M 18.202486 -1.7865103 C 17.856012 -1.4303985 17.664838 -1.0465219 17.628966 -0.63488628 C 17.595844 -0.22607615 17.738116 0.13363162 18.055781 0.44423332 C 18.280015 0.66348174 18.52966 0.79727622 18.804712 0.84561642 C 19.0794 0.88808395 19.393332 0.85586568 19.746505 0.74896053 C 19.904306 0.69920018 20.123233 0.62096648 20.403286 0.51426158 C 20.686088 0.40473041 20.947821 0.28562468 21.18848 0.15694726 C 21.255162 -0.32383241 21.230189 -0.72602597 21.113562 -1.049628 C 20.996936 -1.37323 20.793802 -1.6766311 20.504166 -1.9598267 C 20.17093 -2.2856543 19.79209 -2.427199 19.367653 -2.3844599 C 18.94285 -2.347592 18.55446 -2.1482746 18.202486 -1.7865103 z M 20.607711 1.6158357 C 20.512832 2.0194118 20.520577 2.4268199 20.630945 2.8380558 C 20.744062 3.2464647 20.965684 3.6120634 21.295805 3.9348452 C 21.716244 4.345936 22.191363 4.5540458 22.721158 4.5591713 C 23.250952 4.5642968 23.712463 4.3647796 24.105684 3.9606208 C 24.507154 3.5479834 24.710719 3.104526 24.716374 2.6302562 C 24.724778 2.1531587 24.52499 1.7151537 24.117008 1.316243 C 23.830487 1.0360924 23.545209 0.8702137 23.261178 0.81861032 C 22.976782 0.76113502 22.585141 0.8138853 22.086261 0.97686043 C 21.888504 1.0427027 21.683045 1.1258318 21.469883 1.2262472 C 21.256722 1.3266618 20.969329 1.4565249 20.607711 1.6158357 z "
     transform="matrix(0.73295237,0.68027996,-0.74961917,0.66186939,0,0)" />
  <g
     inkscape:label="Layer 1"
     inkscape:groupmode="layer"
     id="layer1" />
</svg>
