<?xml version="1.0" encoding="UTF-8" standalone="no"?>
<!-- Created with Inkscape (http://www.inkscape.org/) -->

<svg
   width="29mm"
   height="26mm"
   viewBox="0 0 29 26"
   version="1.1"
   id="svg1"
   inkscape:version="1.3.2 (091e20e, 2023-11-25, custom)"
   sodipodi:docname="Ss.svg"
   xmlns:inkscape="http://www.inkscape.org/namespaces/inkscape"
   xmlns:sodipodi="http://sodipodi.sourceforge.net/DTD/sodipodi-0.dtd"
   xmlns="http://www.w3.org/2000/svg"
   xmlns:svg="http://www.w3.org/2000/svg">
  <sodipodi:namedview
     id="namedview1"
     pagecolor="#ffffff"
     bordercolor="#000000"
     borderopacity="0.25"
     inkscape:showpageshadow="2"
     inkscape:pageopacity="0.0"
     inkscape:pagecheckerboard="0"
     inkscape:deskcolor="#d1d1d1"
     inkscape:document-units="mm"
     inkscape:zoom="4.3963502"
     inkscape:cx="80.86253"
     inkscape:cy="86.321604"
     inkscape:window-width="1920"
     inkscape:window-height="1129"
     inkscape:window-x="-8"
     inkscape:window-y="-8"
     inkscape:window-maximized="1"
     inkscape:current-layer="svg1" />
  <defs
     id="defs1" />
  <path
     id="rect5"
     style="fill:#af19af;fill-opacity:1;stroke:#b82960;stroke-width:0.0169117"
     d="M 9.960569 -9.7824465 L 9.9604868 9.2261378 L 28.922967 9.2264289 L 28.92266 -9.7825361 L 9.960569 -9.7824465 z M 11.023311 -8.2904179 L 11.628267 -8.9122017 L 16.735029 -6.4103617 L 16.251408 -5.9132879 L 14.839782 -6.6227722 L 13.363826 -5.1057611 L 14.106563 -3.7087818 L 13.645971 -3.2353782 L 11.023311 -8.2904179 z M 11.763693 -8.1503924 L 13.060244 -5.6783411 L 14.258814 -6.9102502 L 11.763693 -8.1503924 z M 17.447836 -2.350661 C 17.744814 -2.6558998 18.072739 -2.8867628 18.431609 -3.0432467 C 18.787365 -3.2027764 19.164443 -3.278036 19.562841 -3.2690274 C 20.055066 -3.256516 20.568417 -3.1158099 21.102888 -2.846909 C 21.634246 -2.5810524 22.222264 -2.1329527 22.866937 -1.5026135 C 23.474238 -0.90881541 23.963611 -0.30623546 24.335054 0.30512121 C 24.709246 0.91365093 24.947007 1.5156287 25.048334 2.1110478 C 25.153139 2.7153825 25.113726 3.3055532 24.930095 3.8815514 C 24.746462 4.4575503 24.400289 5.0069828 23.891577 5.5298458 C 23.748587 5.6768128 23.604503 5.8061663 23.459326 5.9179043 C 23.317264 6.0326882 23.17805 6.122683 23.041685 6.1878874 L 22.149419 5.3154597 L 22.190666 5.2730654 C 22.317124 5.2367796 22.475025 5.1650558 22.664366 5.0578946 C 22.850592 4.9476876 23.033074 4.8007295 23.211811 4.6170211 C 23.819516 3.9924119 24.089685 3.3024837 24.022313 2.5472424 C 23.954578 1.7861298 23.585383 1.0225504 22.914733 0.25651255 C 22.833406 0.68988319 22.717372 1.05899 22.566634 1.3638284 C 22.415896 1.6686667 22.20716 1.9581619 21.940429 2.2323116 C 21.687448 2.4923297 21.42981 2.7009193 21.167516 2.858079 C 20.907973 3.0124118 20.594109 3.116392 20.225927 3.1700169 C 19.793969 3.2329778 19.369743 3.1849293 18.953251 3.0258707 C 18.539511 2.8639866 18.128647 2.5835869 17.720666 2.184677 C 17.010592 1.4903905 16.639111 0.71354504 16.606226 -0.14584903 C 16.573342 -1.0052438 16.85388 -1.7401835 17.447836 -2.350661 z M 18.201049 -1.5976497 C 17.805078 -1.1906647 17.631746 -0.73143517 17.681056 -0.21996694 C 17.733115 0.28867575 18.012967 0.7911762 18.520608 1.2875302 C 18.816473 1.5768166 19.094959 1.7746589 19.356065 1.8810565 C 19.617172 1.987454 19.905792 2.0187273 20.221926 1.9748747 C 20.442211 1.9420909 20.64373 1.8661366 20.826476 1.7470134 C 21.006109 1.6248451 21.18667 1.4704926 21.368156 1.283958 C 21.582641 1.0635076 21.767175 0.80825675 21.921757 0.51820595 C 22.076339 0.22815588 22.187586 -0.07669357 22.255497 -0.39633801 C 22.192846 -0.46311143 22.131751 -0.52836353 22.072213 -0.59209192 C 22.012311 -0.66169297 21.93253 -0.7452147 21.83287 -0.84265804 C 21.350145 -1.314651 20.918407 -1.6485502 20.537664 -1.8443494 C 20.156921 -2.0401494 19.808579 -2.1380866 19.492644 -2.138161 C 19.223258 -2.1423561 18.984732 -2.0970721 18.77707 -2.0023099 C 18.566294 -1.9105927 18.374286 -1.7757056 18.201049 -1.5976497 z "
     transform="matrix(0.73295237,0.68027996,-0.74961917,0.66186939,0,0)" />
  <g
     inkscape:label="Layer 1"
     inkscape:groupmode="layer"
     id="layer1" />
</svg>
