<?xml version="1.0" encoding="UTF-8" standalone="no"?>
<!-- Created with Inkscape (http://www.inkscape.org/) -->

<svg
   width="29mm"
   height="26mm"
   viewBox="0 0 29 26"
   version="1.1"
   id="svg1"
   inkscape:version="1.3.2 (091e20e, 2023-11-25, custom)"
   sodipodi:docname="Tt.svg"
   xmlns:inkscape="http://www.inkscape.org/namespaces/inkscape"
   xmlns:sodipodi="http://sodipodi.sourceforge.net/DTD/sodipodi-0.dtd"
   xmlns="http://www.w3.org/2000/svg"
   xmlns:svg="http://www.w3.org/2000/svg">
  <sodipodi:namedview
     id="namedview1"
     pagecolor="#ffffff"
     bordercolor="#000000"
     borderopacity="0.25"
     inkscape:showpageshadow="2"
     inkscape:pageopacity="0.0"
     inkscape:pagecheckerboard="0"
     inkscape:deskcolor="#d1d1d1"
     inkscape:document-units="mm"
     inkscape:zoom="4.3963502"
     inkscape:cx="80.86253"
     inkscape:cy="86.321604"
     inkscape:window-width="1920"
     inkscape:window-height="1129"
     inkscape:window-x="-8"
     inkscape:window-y="-8"
     inkscape:window-maximized="1"
     inkscape:current-layer="svg1" />
  <defs
     id="defs1" />
  <path
     id="rect5"
     style="fill:#af19af;fill-opacity:1;stroke:#b82960;stroke-width:0.0169117"
     d="M 9.960569 -9.7824465 L 9.9604868 9.2261378 L 28.922967 9.2264289 L 28.92266 -9.7825361 L 9.960569 -9.7824465 z M 11.023311 -8.2904179 L 11.628267 -8.9122017 L 16.735029 -6.4103617 L 16.251408 -5.9132879 L 14.839782 -6.6227722 L 13.363826 -5.1057611 L 14.106563 -3.7087818 L 13.645971 -3.2353782 L 11.023311 -8.2904179 z M 11.763693 -8.1503924 L 13.060244 -5.6783411 L 14.258814 -6.9102502 L 11.763693 -8.1503924 z M 20.097269 -5.0737914 C 20.834215 -5.8312358 21.67234 -6.0899222 22.611637 -5.8498474 C 23.550568 -5.615644 24.625784 -4.9062633 25.83727 -3.721713 C 27.086129 -2.5006207 27.830075 -1.4257723 28.069101 -0.49717831 C 28.307762 0.42554299 28.064118 1.2599791 27.338171 2.0061188 C 26.601227 2.7635625 25.766397 3.02823 24.833694 2.8001173 C 23.90374 2.5691784 22.825228 1.8538159 21.59817 0.65404036 C 20.361769 -0.55487102 19.62112 -1.6237397 19.37623 -2.5525518 C 19.128226 -3.4844096 19.368574 -4.3248262 20.097269 -5.0737914 z M 14.732329 0.67460972 L 15.371658 0.01749731 L 21.640878 6.1473292 L 22.894787 4.858541 L 23.604863 5.5528289 L 20.280353 8.9698135 L 19.570277 8.2755255 L 20.848935 6.9613007 L 16.186728 2.4027521 L 14.90807 3.7169769 L 14.27274 3.0957719 C 14.445977 2.917716 14.616017 2.7117149 14.782859 2.4777713 C 14.946586 2.2407821 15.048179 2.0395502 15.087633 1.8740747 C 15.136266 1.6679383 15.137155 1.4702692 15.090304 1.2810713 C 15.043088 1.0860016 14.923763 0.883847 14.732329 0.67460972 z M 20.868075 -4.3201235 C 20.609594 -4.0544531 20.455839 -3.7746204 20.406812 -3.480632 C 20.360535 -3.1894684 20.410917 -2.8727308 20.557959 -2.5304201 C 20.694928 -2.2089878 20.930845 -1.8487138 21.265707 -1.4496037 C 21.603318 -1.0533197 21.993245 -0.63897171 22.435485 -0.20656492 C 22.921325 0.26847309 23.342875 0.65031893 23.700131 0.93896681 C 24.057386 1.2276146 24.414759 1.4474396 24.772243 1.5984379 C 25.105907 1.7426904 25.419079 1.7924528 25.711755 1.7477249 C 26.007182 1.7001715 26.292386 1.5350793 26.567366 1.2524509 C 26.825847 0.98677977 26.979601 0.70694845 27.028629 0.4129594 C 27.077656 0.11896961 27.025899 -0.19635482 26.873357 -0.53301306 C 26.717337 -0.87858758 26.486092 -1.2342936 26.179624 -1.6001265 C 25.872791 -1.9718306 25.479567 -2.3921597 24.999956 -2.8611077 C 24.526574 -3.3239648 24.097601 -3.7075522 23.713046 -4.0118636 C 23.33124 -4.3190012 22.969379 -4.5404575 22.627465 -4.6762307 C 22.291417 -4.8117842 21.978793 -4.8527397 21.689594 -4.7990963 C 21.403146 -4.7482783 21.129306 -4.5886209 20.868075 -4.3201235 z "
     transform="matrix(0.73295237,0.68027996,-0.74961917,0.66186939,0,0)" />
  <g
     inkscape:label="Layer 1"
     inkscape:groupmode="layer"
     id="layer1" />
</svg>
