<?xml version="1.0" encoding="UTF-8" standalone="no"?>
<!-- Created with Inkscape (http://www.inkscape.org/) -->

<svg
   width="29mm"
   height="26mm"
   viewBox="0 0 29 26"
   version="1.1"
   id="svg1"
   inkscape:version="1.3.2 (091e20e, 2023-11-25, custom)"
   sodipodi:docname="Uu.svg"
   xmlns:inkscape="http://www.inkscape.org/namespaces/inkscape"
   xmlns:sodipodi="http://sodipodi.sourceforge.net/DTD/sodipodi-0.dtd"
   xmlns="http://www.w3.org/2000/svg"
   xmlns:svg="http://www.w3.org/2000/svg">
  <sodipodi:namedview
     id="namedview1"
     pagecolor="#ffffff"
     bordercolor="#000000"
     borderopacity="0.25"
     inkscape:showpageshadow="2"
     inkscape:pageopacity="0.0"
     inkscape:pagecheckerboard="0"
     inkscape:deskcolor="#d1d1d1"
     inkscape:document-units="mm"
     inkscape:zoom="4.3963502"
     inkscape:cx="80.86253"
     inkscape:cy="86.321604"
     inkscape:window-width="1920"
     inkscape:window-height="1129"
     inkscape:window-x="-8"
     inkscape:window-y="-8"
     inkscape:window-maximized="1"
     inkscape:current-layer="svg1" />
  <defs
     id="defs1" />
  <path
     id="rect5"
     style="fill:#af19af;fill-opacity:1;stroke:#b82960;stroke-width:0.0169117"
     d="M 9.960569 -9.7824465 L 9.9604868 9.2261378 L 28.922967 9.2264289 L 28.92266 -9.7825361 L 9.960569 -9.7824465 z M 11.023311 -8.2904179 L 11.628267 -8.9122017 L 16.735029 -6.4103617 L 16.251408 -5.9132879 L 14.839782 -6.6227722 L 13.363826 -5.1057611 L 14.106563 -3.7087818 L 13.645971 -3.2353782 L 11.023311 -8.2904179 z M 11.763693 -8.1503924 L 13.060244 -5.6783411 L 14.258814 -6.9102502 L 11.763693 -8.1503924 z M 14.495372 0.82758917 L 15.134701 0.17047675 L 21.403921 6.3003086 L 22.65783 5.0115204 L 23.367906 5.7058084 L 20.043396 9.1227929 L 19.33332 8.428505 L 20.611978 7.1142801 L 15.949771 2.5557315 L 14.671113 3.8699564 L 14.035783 3.2487513 C 14.20902 3.0706955 14.37906 2.8646944 14.545902 2.6307508 C 14.709629 2.3937622 14.811221 2.1925289 14.850676 2.0270542 C 14.899308 1.820917 14.900198 1.6232485 14.853347 1.4340508 C 14.806132 1.2389818 14.686806 1.0368271 14.495372 0.82758917 z M 19.865734 -4.6921551 L 20.505063 -5.3492675 L 26.774283 0.78056438 L 28.028192 -0.50822383 L 28.738268 0.18606413 L 25.413758 3.6030487 L 24.703682 2.9087607 L 25.98234 1.5945359 L 21.320133 -2.9640127 L 20.041476 -1.6497879 L 19.406145 -2.2709929 C 19.579382 -2.4490488 19.749422 -2.6550499 19.916264 -2.8889935 C 20.079992 -3.1259821 20.181583 -3.3272154 20.221039 -3.4926901 C 20.26967 -3.6988272 20.27056 -3.8964957 20.22371 -4.0856935 C 20.176494 -4.2807625 20.057169 -4.4829178 19.865734 -4.6921551 z "
     transform="matrix(0.73295237,0.68027996,-0.74961917,0.66186939,0,0)" />
  <g
     inkscape:label="Layer 1"
     inkscape:groupmode="layer"
     id="layer1" />
</svg>
