<?xml version="1.0" encoding="UTF-8" standalone="no"?>
<!-- Created with Inkscape (http://www.inkscape.org/) -->

<svg
   width="29mm"
   height="26mm"
   viewBox="0 0 29 26"
   version="1.1"
   id="svg1"
   inkscape:version="1.3.2 (091e20e, 2023-11-25, custom)"
   sodipodi:docname="Vv.svg"
   xmlns:inkscape="http://www.inkscape.org/namespaces/inkscape"
   xmlns:sodipodi="http://sodipodi.sourceforge.net/DTD/sodipodi-0.dtd"
   xmlns="http://www.w3.org/2000/svg"
   xmlns:svg="http://www.w3.org/2000/svg">
  <sodipodi:namedview
     id="namedview1"
     pagecolor="#ffffff"
     bordercolor="#000000"
     borderopacity="0.25"
     inkscape:showpageshadow="2"
     inkscape:pageopacity="0.0"
     inkscape:pagecheckerboard="0"
     inkscape:deskcolor="#d1d1d1"
     inkscape:document-units="mm"
     inkscape:zoom="4.3963502"
     inkscape:cx="80.86253"
     inkscape:cy="86.321604"
     inkscape:window-width="1920"
     inkscape:window-height="1129"
     inkscape:window-x="-8"
     inkscape:window-y="-8"
     inkscape:window-maximized="1"
     inkscape:current-layer="svg1" />
  <defs
     id="defs1" />
  <path
     id="rect5"
     style="fill:#af19af;fill-opacity:1;stroke:#b82960;stroke-width:0.0169117"
     d="M 9.960569 -9.7824465 L 9.9604868 9.2261378 L 28.922967 9.2264289 L 28.92266 -9.7825361 L 9.960569 -9.7824465 z M 10.989494 1.6592717 L 11.806185 0.81986357 L 16.015251 4.9353468 C 16.392089 5.3038063 16.71151 5.5720057 16.973513 5.7399435 C 17.238265 5.905055 17.513022 6.0192844 17.797783 6.082631 C 18.121207 6.1562071 18.437425 6.1372539 18.746434 6.0257713 C 19.058193 5.9114624 19.359812 5.7045141 19.651291 5.4049277 C 19.945519 5.102515 20.145922 4.7966 20.252497 4.4871847 C 20.355958 4.1747242 20.366785 3.8544126 20.284978 3.5262518 C 20.214701 3.2424548 20.087887 2.9667982 19.904535 2.6992839 C 19.720819 2.4258982 19.459227 2.1232454 19.119762 1.7913274 L 14.887337 -2.3469943 L 15.704028 -3.1864024 L 19.866379 0.883404 C 20.370906 1.3767134 20.762093 1.8584724 21.039939 2.3286782 C 21.317419 2.7930126 21.469368 3.2614506 21.495783 3.7339895 C 21.52074 4.1830426 21.446105 4.6064139 21.271879 5.0041007 C 21.097652 5.4017874 20.822177 5.7942326 20.445454 6.181434 C 20.060483 6.5771142 19.66739 6.8655874 19.26618 7.0468518 C 18.864969 7.2281162 18.454628 7.3094576 18.035158 7.2908753 C 17.557047 7.2701048 17.08786 7.1339753 16.627601 6.8824878 C 16.170092 6.628174 15.678172 6.2437033 15.151845 5.7290781 L 10.989494 1.6592717 z M 17.263166 -4.7889088 L 18.079857 -5.6283169 L 24.213602 0.36905212 L 27.28238 -2.7850875 L 28.104573 -1.9811751 L 24.219103 2.0123726 L 17.263166 -4.7889088 z "
     transform="matrix(0.73295237,0.68027996,-0.74961917,0.66186939,0,0)" />
  <g
     inkscape:label="Layer 1"
     inkscape:groupmode="layer"
     id="layer1" />
</svg>
